<?xml version="1.0" encoding="utf-8"?>
<!-- Generator: Adobe Illustrator 24.2.1, SVG Export Plug-In . SVG Version: 6.00 Build 0)  -->
<svg version="1.1" id="Layer_1" xmlns="http://www.w3.org/2000/svg" xmlns:xlink="http://www.w3.org/1999/xlink" x="0px" y="0px"
	 viewBox="0 0 612 792" style="enable-background:new 0 0 612 792;" xml:space="preserve">
<style type="text/css">
	.st0{fill:#FFFFFF;}
</style>
<path class="st0" d="M239.66,396.22c1.77-2.3,4.9-6.8,4.98-10.09c0.05-2.09-0.55-3.83-1.74-5.05c-1.09-1.12-2.67-1.76-4.33-1.76
	h-12.18c-1.66,0-3.24,0.64-4.33,1.76c-1.19,1.22-1.79,2.97-1.74,5.05c0.08,3.27,3.18,7.75,4.96,10.06
	c-0.97,0.38-1.66,1.32-1.66,2.42v1.92c0,1.27,0.92,2.33,2.13,2.56v17.84c0,1.25,0.86,2.3,2.01,2.6c0.49,1.07,1.83,3.26,4.47,3.26
	c2.57,0,3.9-2.08,4.42-3.17h0.19c1.48,0,2.69-1.21,2.69-2.69v-17.89c0-0.02,0-0.04,0-0.06c1-0.36,1.72-1.32,1.72-2.45v-1.92
	C241.24,397.54,240.59,396.61,239.66,396.22z M223.43,382.4c0.73-0.75,1.81-1.18,2.97-1.18h12.18c1.15,0,2.23,0.43,2.97,1.18
	c0.84,0.86,1.24,2.09,1.2,3.68c-0.07,2.94-3.59,7.8-5.34,9.92h-1.76v-4.86c0.57-0.4,1.09-0.91,1.55-1.54
	c0.9-1.21,1.29-2.42,1.3-2.47c0.16-0.5-0.12-1.04-0.62-1.19c-0.5-0.16-1.04,0.12-1.19,0.62c-0.01,0.04-1.19,3.7-4.26,3.7
	c-1.31,0-2.41-0.59-3.28-1.75c-0.69-0.94-0.97-1.9-0.98-1.92c-0.14-0.51-0.66-0.8-1.17-0.66c-0.51,0.14-0.81,0.66-0.67,1.17
	c0.34,1.25,1.39,3.28,3.31,4.36v4.55h-2.07c-1.75-2.12-5.27-6.99-5.34-9.92C222.19,384.5,222.59,383.26,223.43,382.4z
	 M232.42,392.18c0.45,0,0.89-0.05,1.31-0.16v3.99h-2.19v-3.9C231.82,392.15,232.12,392.18,232.42,392.18z M225.53,400.53v-1.92
	c0-0.39,0.31-0.7,0.7-0.7h12.41c0.39,0,0.7,0.31,0.7,0.7v1.92c0,0.39-0.31,0.7-0.7,0.7h-12.41
	C225.84,401.23,225.53,400.91,225.53,400.53z M230.1,417.56c-0.49-0.18-1.04,0.08-1.22,0.57c-0.18,0.49,0.08,1.04,0.57,1.22
	l6.5,2.35h-7.52c-0.43,0-0.79-0.35-0.79-0.79V403.3c0.05,0,0.1,0.01,0.14,0.01c0.19,0.01,0.41,0.03,0.64,0.03h8.4
	c0.24,0,0.45-0.02,0.64-0.03c0.04,0,0.09-0.01,0.14-0.01v3.88l-7.53-2.72c-0.49-0.18-1.04,0.08-1.22,0.57
	c-0.18,0.49,0.08,1.04,0.57,1.22l8.18,2.96v2.28l-7.53-2.72c-0.49-0.18-1.04,0.08-1.22,0.57c-0.18,0.49,0.08,1.04,0.57,1.22
	l8.18,2.96v2.17l-7.53-2.72c-0.49-0.18-1.04,0.08-1.22,0.57c-0.18,0.49,0.08,1.04,0.57,1.22l8.18,2.96v2.58L230.1,417.56z
	 M232.23,424.88c-0.07,0-1.32-0.02-2.25-1.27h4.5C233.55,424.86,232.3,424.88,232.23,424.88z"/>
<g>
	<g>
		<path class="st0" d="M251.88,388.8h3.08c1.99,0,2.98,1.05,2.98,3.18v0.73c0,2.1-0.79,3.37-3.07,3.37h-0.68v4.72h-2.31V388.8z
			 M254.19,394.21h0.37c0.88,0,1.06-0.49,1.06-1.49v-0.83c0-0.78-0.18-1.28-0.95-1.28h-0.48V394.21z"/>
		<path class="st0" d="M261.25,395.58v5.21h-2.3V388.8h2.99c2.01,0,3,0.88,3,2.98v0.43c0,1.71-0.68,2.22-1.2,2.46
			c0.75,0.36,1.1,0.91,1.1,2.58c0,1.16-0.02,2.91,0.08,3.54h-2.23c-0.15-0.54-0.14-2.1-0.14-3.63c0-1.35-0.15-1.58-1.03-1.58H261.25
			z M261.26,393.76h0.29c0.77,0,1.08-0.24,1.08-1.36v-0.58c0-0.81-0.16-1.21-1.01-1.21h-0.36V393.76z"/>
		<path class="st0" d="M272.21,392.01v5.56c0,2.38-1.12,3.4-3.22,3.4c-1.99,0-3.01-1.05-3.01-3.38v-5.65c0-2.32,1.27-3.33,3.12-3.33
			C270.96,388.62,272.21,389.62,272.21,392.01z M268.32,391.75v6.13c0,0.74,0.25,1.13,0.77,1.13c0.54,0,0.78-0.35,0.78-1.14v-6.14
			c0-0.75-0.21-1.13-0.79-1.13C268.59,390.6,268.32,390.96,268.32,391.75z"/>
		<path class="st0" d="M274.75,400.8v-3.84c0-0.19-0.03-0.41-0.08-0.62l-2.11-7.53h2.51c0.32,1.73,0.7,3.72,0.85,5.23h0.07
			c0.19-1.44,0.58-3.47,0.89-5.23h2.38l-2.16,7.73c-0.03,0.15-0.05,0.27-0.05,0.52v3.75H274.75z"/>
		<path class="st0" d="M284.63,395.5h-2.47v3.27h2.9l-0.28,2.03h-4.93V388.8h4.91v2.04h-2.6v2.63h2.47V395.5z"/>
		<path class="st0" d="M291.72,396.88v0.65c0,1.51-0.28,3.45-3.03,3.45c-2.03,0-2.91-1.08-2.91-3.29v-5.88
			c0-2.09,1.04-3.19,2.96-3.19c2.53,0,2.95,1.67,2.95,3.24v0.75h-2.32v-1.02c0-0.66-0.14-0.99-0.62-0.99
			c-0.48,0-0.63,0.32-0.63,0.99v6.34c0,0.64,0.11,1.08,0.63,1.08c0.5,0,0.65-0.37,0.65-1.13v-1H291.72z"/>
		<path class="st0" d="M294.03,390.84h-1.75v-2.04h5.81v2.04h-1.76v9.95h-2.3V390.84z"/>
		<path class="st0" d="M304.92,392.01v5.56c0,2.38-1.12,3.4-3.22,3.4c-1.99,0-3.01-1.05-3.01-3.38v-5.65c0-2.32,1.27-3.33,3.12-3.33
			C303.67,388.62,304.92,389.62,304.92,392.01z M301.02,391.75v6.13c0,0.74,0.25,1.13,0.77,1.13c0.54,0,0.78-0.35,0.78-1.14v-6.14
			c0-0.75-0.21-1.13-0.79-1.13C301.29,390.6,301.02,390.96,301.02,391.75z"/>
		<path class="st0" d="M308.08,397.1v0.83c0,0.79,0.2,1.16,0.72,1.16c0.53,0,0.66-0.54,0.66-1.11c0-1.13-0.21-1.46-1.44-2.48
			c-1.35-1.14-2.05-1.82-2.05-3.59c0-1.71,0.57-3.29,2.84-3.29c2.41,0,2.77,1.65,2.77,3.02v0.69h-2.18v-0.72
			c0-0.73-0.12-1.09-0.58-1.09c-0.43,0-0.56,0.37-0.56,1.05c0,0.72,0.13,1.08,1.12,1.85c1.76,1.39,2.4,2.16,2.4,4.14
			c0,1.88-0.64,3.43-3.03,3.43c-2.29,0-2.94-1.38-2.94-3.16v-0.72H308.08z"/>
		<path class="st0" d="M315.16,388.8H318c2.47,0,3.32,1.13,3.32,3.61v4.51c0,2.07-0.44,3.88-3.17,3.88h-2.99V388.8z M317.47,398.94
			h0.45c0.9,0,1.05-0.59,1.05-1.53v-5.37c0-0.89-0.2-1.37-1.07-1.37h-0.43V398.94z"/>
		<path class="st0" d="M327.34,395.5h-2.47v3.27h2.9l-0.28,2.03h-4.93V388.8h4.91v2.04h-2.6v2.63h2.47V395.5z"/>
		<path class="st0" d="M330.93,388.8h2.84c2.47,0,3.32,1.13,3.32,3.61v4.51c0,2.07-0.44,3.88-3.17,3.88h-2.99V388.8z M333.24,398.94
			h0.45c0.9,0,1.05-0.59,1.05-1.53v-5.37c0-0.89-0.2-1.37-1.07-1.37h-0.43V398.94z"/>
		<path class="st0" d="M340.65,388.8v11.99h-2.3V388.8H340.65z"/>
		<path class="st0" d="M343.89,397.1v0.83c0,0.79,0.2,1.16,0.72,1.16c0.53,0,0.66-0.54,0.66-1.11c0-1.13-0.21-1.46-1.44-2.48
			c-1.35-1.14-2.05-1.82-2.05-3.59c0-1.71,0.57-3.29,2.84-3.29c2.41,0,2.77,1.65,2.77,3.02v0.69h-2.18v-0.72
			c0-0.73-0.12-1.09-0.58-1.09c-0.43,0-0.56,0.37-0.56,1.05c0,0.72,0.13,1.08,1.12,1.85c1.76,1.39,2.4,2.16,2.4,4.14
			c0,1.88-0.64,3.43-3.03,3.43c-2.29,0-2.94-1.38-2.94-3.16v-0.72H343.89z"/>
		<path class="st0" d="M353.39,395.5h-2.47v3.27h2.9l-0.28,2.03h-4.93V388.8h4.91v2.04h-2.6v2.63h2.47V395.5z"/>
		<path class="st0" d="M354.64,400.8V388.8h2.55c0.38,1.46,1.58,6.9,1.68,7.42h0.06c-0.13-1.6-0.21-3.78-0.21-5.45v-1.97h2.14v11.99
			h-2.58c-0.25-1.14-1.56-7.35-1.64-7.73h-0.06c0.09,1.41,0.16,3.8,0.16,5.68v2.05H354.64z M355.26,388v-0.38
			c-0.01-1.36,0.63-1.67,1.35-1.67c0.86,0,1.6,0.49,2,0.49c0.14,0,0.27-0.03,0.27-0.32v-0.15h1.36v0.3c0,1.41-0.49,1.77-1.31,1.77
			c-0.79,0-1.55-0.48-2.01-0.48c-0.18,0-0.28,0.09-0.28,0.31V388H355.26z"/>
		<path class="st0" d="M368.34,392.01v5.56c0,2.38-1.12,3.4-3.22,3.4c-1.99,0-3.01-1.05-3.01-3.38v-5.65c0-2.32,1.27-3.33,3.12-3.33
			C367.09,388.62,368.34,389.62,368.34,392.01z M364.45,391.75v6.13c0,0.74,0.25,1.13,0.77,1.13c0.54,0,0.78-0.35,0.78-1.14v-6.14
			c0-0.75-0.21-1.13-0.79-1.13C364.72,390.6,364.45,390.96,364.45,391.75z"/>
		<path class="st0" d="M251.88,408.07h2.84c2.47,0,3.32,1.13,3.32,3.61v4.51c0,2.07-0.44,3.88-3.17,3.88h-2.99V408.07z
			 M254.19,418.2h0.45c0.9,0,1.05-0.59,1.05-1.53v-5.37c0-0.89-0.2-1.37-1.07-1.37h-0.43V418.2z"/>
		<path class="st0" d="M264.06,414.76h-2.47v3.27h2.9l-0.28,2.03h-4.93v-11.99h4.91v2.04h-2.6v2.63h2.47V414.76z"/>
		<path class="st0" d="M269.96,408.07v11.99h-2.3v-11.99H269.96z"/>
		<path class="st0" d="M271.41,408.07h2.31v9.98h2.9l-0.21,2.02h-5V408.07z"/>
		<path class="st0" d="M279.55,408.07v9.13c0,0.7,0.21,1.07,0.74,1.07c0.56,0,0.73-0.43,0.73-1.07v-9.13h2.33v8.98
			c0,2.13-0.98,3.18-3.1,3.18c-2.08,0-3.03-1.02-3.03-3.2v-8.96H279.55z"/>
		<path class="st0" d="M290.95,416.24c0-1.86,0.02-4.49,0.05-5.96h-0.06c-0.25,2.4-0.78,7.26-1.11,9.78h-1.96
			c-0.26-2.62-0.78-7.57-1.03-9.81h-0.07c0.03,1.41,0.09,4.01,0.09,6.08v3.74h-2.09v-11.99h3.31c0.31,2.28,0.66,5.27,0.8,6.9h0.05
			c0.19-1.74,0.58-4.26,0.95-6.9h3.3v11.99h-2.22V416.24z"/>
		<path class="st0" d="M296.91,408.07v11.99h-2.3v-11.99H296.91z"/>
		<path class="st0" d="M298.35,420.06v-11.99h2.55c0.38,1.46,1.58,6.9,1.68,7.42h0.06c-0.13-1.6-0.21-3.78-0.21-5.45v-1.97h2.14
			v11.99H302c-0.25-1.14-1.56-7.35-1.64-7.73h-0.06c0.09,1.41,0.16,3.8,0.16,5.68v2.05H298.35z"/>
		<path class="st0" d="M308.08,417.21l-0.29,2.85h-2.35l1.7-11.99h3.44l1.74,11.99h-2.4l-0.33-2.85H308.08z M309.38,415.17
			c-0.17-1.53-0.41-3.87-0.52-5.02h-0.09c-0.04,0.84-0.33,3.54-0.49,5.02H309.38z"/>
		<path class="st0" d="M318.98,416.14v0.65c0,1.51-0.28,3.45-3.03,3.45c-2.03,0-2.91-1.08-2.91-3.29v-5.88
			c0-2.09,1.04-3.19,2.96-3.19c2.53,0,2.95,1.67,2.95,3.24v0.75h-2.32v-1.02c0-0.66-0.14-1-0.62-1c-0.47,0-0.63,0.32-0.63,1v6.34
			c0,0.64,0.11,1.08,0.63,1.08c0.5,0,0.65-0.37,0.65-1.13v-1H318.98z"/>
		<path class="st0" d="M322.29,408.07v11.99h-2.3v-11.99H322.29z"/>
		<path class="st0" d="M329.78,411.27v5.56c0,2.38-1.12,3.4-3.22,3.4c-1.99,0-3.01-1.05-3.01-3.38v-5.65c0-2.32,1.27-3.33,3.12-3.33
			C328.53,407.88,329.78,408.88,329.78,411.27z M329.86,405.44l-2.36,1.8h-2.03l1.69-1.8H329.86z M325.88,411.01v6.13
			c0,0.74,0.25,1.13,0.77,1.13c0.54,0,0.78-0.35,0.78-1.14V411c0-0.75-0.21-1.13-0.79-1.13
			C326.16,409.86,325.88,410.22,325.88,411.01z"/>
		<path class="st0" d="M331.02,420.06v-11.99h2.55c0.38,1.46,1.58,6.9,1.68,7.42h0.06c-0.13-1.6-0.21-3.78-0.21-5.45v-1.97h2.14
			v11.99h-2.58c-0.25-1.14-1.56-7.35-1.64-7.73h-0.06c0.09,1.41,0.16,3.8,0.16,5.68v2.05H331.02z"/>
		<path class="st0" d="M343.29,408.07v11.99h-2.3v-11.99H343.29z"/>
		<path class="st0" d="M344.74,420.06v-11.99h2.55c0.38,1.46,1.58,6.9,1.68,7.42h0.06c-0.13-1.6-0.21-3.78-0.21-5.45v-1.97h2.14
			v11.99h-2.58c-0.25-1.14-1.56-7.35-1.64-7.73h-0.06c0.09,1.41,0.16,3.8,0.16,5.68v2.05H344.74z"/>
		<path class="st0" d="M352.4,408.07h2.84c2.47,0,3.32,1.13,3.32,3.61v4.51c0,2.07-0.44,3.88-3.17,3.88h-2.99V408.07z M354.71,418.2
			h0.45c0.9,0,1.05-0.59,1.05-1.53v-5.37c0-0.89-0.2-1.37-1.07-1.37h-0.43V418.2z"/>
		<path class="st0" d="M362.07,408.07v9.13c0,0.7,0.21,1.07,0.74,1.07c0.56,0,0.73-0.43,0.73-1.07v-9.13h2.34v8.98
			c0,2.13-0.98,3.18-3.1,3.18c-2.08,0-3.03-1.02-3.03-3.2v-8.96H362.07z"/>
		<path class="st0" d="M369.12,416.36v0.83c0,0.79,0.2,1.16,0.72,1.16c0.53,0,0.66-0.54,0.66-1.11c0-1.13-0.21-1.46-1.44-2.48
			c-1.35-1.14-2.05-1.82-2.05-3.59c0-1.71,0.57-3.29,2.84-3.29c2.41,0,2.77,1.64,2.77,3.02v0.69h-2.18v-0.72
			c0-0.73-0.12-1.09-0.58-1.09c-0.43,0-0.56,0.37-0.56,1.04c0,0.72,0.13,1.08,1.12,1.85c1.76,1.39,2.4,2.16,2.4,4.14
			c0,1.88-0.64,3.43-3.03,3.43c-2.29,0-2.94-1.38-2.94-3.16v-0.72H369.12z"/>
		<path class="st0" d="M374.99,410.1h-1.75v-2.04h5.81v2.04h-1.76v9.96h-2.3V410.1z"/>
		<path class="st0" d="M382.17,414.85v5.21h-2.3v-11.99h2.99c2.01,0,3,0.88,3,2.98v0.43c0,1.71-0.68,2.22-1.2,2.46
			c0.75,0.36,1.1,0.91,1.1,2.58c0,1.16-0.02,2.91,0.08,3.54h-2.23c-0.15-0.54-0.14-2.1-0.14-3.63c0-1.35-0.15-1.58-1.03-1.58H382.17
			z M382.18,413.03h0.29c0.77,0,1.08-0.24,1.08-1.36v-0.58c0-0.8-0.16-1.21-1.01-1.21h-0.36V413.03z"/>
		<path class="st0" d="M389.42,408.07v11.99h-2.3v-11.99H389.42z"/>
		<path class="st0" d="M392.94,417.21l-0.3,2.85h-2.35l1.7-11.99h3.44l1.74,11.99h-2.4l-0.33-2.85H392.94z M394.24,415.17
			c-0.17-1.53-0.41-3.87-0.52-5.02h-0.09c-0.04,0.84-0.33,3.54-0.48,5.02H394.24z"/>
		<path class="st0" d="M397.99,408.07h2.31v9.98h2.9l-0.21,2.02h-5V408.07z"/>
	</g>
</g>
</svg>
