<?xml version="1.0" encoding="utf-8"?>
<!-- Generator: Adobe Illustrator 22.0.0, SVG Export Plug-In . SVG Version: 6.00 Build 0)  -->
<svg version="1.1" id="Layer_1" xmlns="http://www.w3.org/2000/svg" xmlns:xlink="http://www.w3.org/1999/xlink" x="0px" y="0px"
	 viewBox="0 0 511 450" style="enable-background:new 0 0 511 450;" xml:space="preserve">
<style type="text/css">
	.st0{fill:#F15A29;stroke:#FFFFFF;stroke-width:22;stroke-miterlimit:10;}
	.st1{fill:#282829;stroke:#FFFFFF;stroke-width:22;stroke-miterlimit:10;}
	.st2{fill:#F15A29;}
	.st3{fill:#282829;}
	.st4{fill:#FFFFFF;}
</style>
<g>
	<path class="st0" d="M255.3,110c0,0-109.3,127-151.7,182.5C154,205.3,204.4,118.1,255.3,29.9c50.9,88.1,101.3,175.3,151.7,262.5
		C364.6,237,255.3,110,255.3,110z"/>
	<g>
		<path class="st1" d="M379.3,336.2c0,0-85.1-144.3-124-202.3c66.4,75.8,132.8,151.5,199.8,228c-99.8,19.9-198.6,39.5-297.4,59.2
			C223.9,398.9,379.3,336.2,379.3,336.2z"/>
		<path class="st1" d="M131.3,336.2c0,0,85.1-144.3,124-202.3c-66.4,75.8-132.8,151.5-199.8,228c99.8,19.9,198.6,39.5,297.4,59.2
			C286.7,398.9,131.3,336.2,131.3,336.2z"/>
	</g>
</g>
<g>
	<path class="st2" d="M255.3,110c0,0-109.3,127-151.7,182.5C154,205.3,204.4,118.1,255.3,29.9c50.9,88.1,101.3,175.3,151.7,262.5
		C364.6,237,255.3,110,255.3,110z"/>
	<g>
		<path class="st3" d="M379.3,336.2c0,0-85.1-144.3-124-202.3c66.4,75.8,132.8,151.5,199.8,228c-99.8,19.9-198.6,39.5-297.4,59.2
			C223.9,398.9,379.3,336.2,379.3,336.2z"/>
		<path class="st3" d="M131.3,336.2c0,0,85.1-144.3,124-202.3c-66.4,75.8-132.8,151.5-199.8,228c99.8,19.9,198.6,39.5,297.4,59.2
			C286.7,398.9,131.3,336.2,131.3,336.2z"/>
	</g>
</g>
<polygon class="st4" points="411.3,278.2 444.2,333.5 406.7,290.6 "/>
<polygon class="st4" points="99.2,278.2 66.4,333.5 103.5,291 "/>
<polygon class="st4" points="250.2,129.9 255.3,133.2 259.6,131.2 259.6,126.9 255.5,125.2 "/>
<polygon class="st4" points="356.2,410.8 448.6,449.7 350.7,432 "/>
<polygon class="st4" points="154.3,410.8 61.9,449.7 159.9,432 "/>
</svg>
