<svg xmlns="http://www.w3.org/2000/svg" viewBox="0 0 250 160"><pattern x="-4216.3" y="-1230.2" width="16" height="17.9" patternUnits="userSpaceOnUse" id="a" viewBox="0 -17.9 16 17.9" overflow="visible"><path fill="none" d="M0 0h16v-17.9H0z"/><path fill="#383838" d="M0 0h16v-17.9H0z"/></pattern><path fill="#FFF" d="M0 .1h250v160H0z"/><path fill="#ADD6FA" d="M197.3 50.1h-13.1l-2.4 6.9h-7.9l12.8-33.9h8.8L207.9 57h-8.2l-2.4-6.9zm-10.6-6.9h8.2l-4.1-11.7-4.1 11.7z"/><path fill="url(#a)" d="M208 58.5h-8.2c-.6 0-1.2-.4-1.4-1l-2.1-5.9h-11l-2.1 5.9c-.2.6-.8 1-1.4 1h-7.9c-.5 0-1-.2-1.2-.6s-.3-.9-.2-1.4l12.8-33.9c.2-.6.8-1 1.4-1h8.8c.6 0 1.2.4 1.4 1l12.5 33.7c.1.2.2.5.2.7-.1.8-.8 1.5-1.6 1.5zm-7.2-3h5l-11.5-30.9h-6.7L176 55.5h4.7l2.1-5.9c.2-.6.8-1 1.4-1h13.1c.6 0 1.2.4 1.4 1l2.1 5.9zm-5.9-10.8h-8.2c-.5 0-.9-.2-1.2-.6s-.4-.9-.2-1.4l4.2-11.7c.2-.6.8-1 1.4-1 .6 0 1.2.4 1.4 1l4.1 11.7c.2.5.1 1-.2 1.4-.4.4-.8.6-1.3.6zm-6.1-3h4l-2-5.7-2 5.7zm-59.9 97.4c-.8 0-1.5-.7-1.5-1.5V23.1c0-.8.7-1.5 1.5-1.5s1.5.7 1.5 1.5v114.6c0 .8-.6 1.4-1.5 1.4z"/><path fill="#E4F1FD" d="M142.4 83.5h96.4v27.7h-96.4z"/><path fill="url(#a)" d="M238.8 112.7h-96.4c-.8 0-1.5-.7-1.5-1.5V83.5c0-.8.7-1.5 1.5-1.5h96.4c.8 0 1.5.7 1.5 1.5v27.7c0 .8-.7 1.5-1.5 1.5zm-94.9-3h93.4V85h-93.4v24.7zm42.8 16.1h-44.4c-.8 0-1.5-.7-1.5-1.5s.7-1.5 1.5-1.5h44.4c.8 0 1.5.7 1.5 1.5s-.6 1.5-1.5 1.5zm0 13.3h-44.4c-.8 0-1.5-.7-1.5-1.5s.7-1.5 1.5-1.5h44.4c.8 0 1.5.7 1.5 1.5s-.6 1.5-1.5 1.5zm52.3-13.3h-44.4c-.8 0-1.5-.7-1.5-1.5s.7-1.5 1.5-1.5H239c.8 0 1.5.7 1.5 1.5s-.7 1.5-1.5 1.5zm0 13.3h-44.4c-.8 0-1.5-.7-1.5-1.5s.7-1.5 1.5-1.5H239c.8 0 1.5.7 1.5 1.5s-.7 1.5-1.5 1.5zm-.2-67.3h-96.4c-.8 0-1.5-.7-1.5-1.5s.7-1.5 1.5-1.5h96.4c.8 0 1.5.7 1.5 1.5s-.7 1.5-1.5 1.5zM24.3 74.4c-.3 0-.6-.1-.8-.2l-13.2-8.8c-.4-.3-.7-.7-.7-1.3 0-.5.3-1 .7-1.3L23.5 54c.7-.5 1.6-.3 2.1.4s.3 1.6-.4 2.1L13.9 64l11.4 7.5c.7.5.9 1.4.4 2.1-.5.6-.9.8-1.4.8zm27.9 34c-.3 0-.6-.1-.8-.2l-13.2-8.8c-.4-.3-.7-.7-.7-1.3 0-.5.3-1 .7-1.3L51.4 88c.7-.5 1.6-.3 2.1.4s.3 1.6-.4 2.1L41.8 98l11.4 7.5c.7.5.9 1.4.4 2.1-.5.6-1 .8-1.4.8zm36.4 0c-.5 0-1-.2-1.3-.7-.5-.7-.3-1.6.4-2.1l11.4-7.5-11.3-7.5c-.7-.5-.9-1.4-.4-2.1.5-.7 1.4-.9 2.1-.4l13.2 8.8c.4.3.7.7.7 1.3 0 .5-.3 1-.7 1.3l-13.2 8.8c-.4 0-.7.1-.9.1zm13.8-34c-.5 0-1-.2-1.3-.7-.5-.7-.3-1.6.4-2.1l11.4-7.5-11.3-7.5c-.7-.5-.9-1.4-.4-2.1.5-.7 1.4-.9 2.1-.4l13.2 8.8c.4.3.7.7.7 1.3 0 .5-.3 1-.7 1.3l-13.2 8.8c-.3.1-.6.1-.9.1z"/><path d="M33.9 75.3h-3.3V50h3.3v10.5c1.2-1.8 3.2-2.5 5.1-2.5 4 0 6 2.9 6 6.7v10.7h-3.3V65.2c0-2.3-1-4.2-3.9-4.2-2.5 0-3.9 2-3.9 4.4v9.9zm20.8-16.8h3.6v3h-3.6v8.8c0 1.5.6 2.3 2.3 2.3.4 0 1-.1 1.3-.1v2.8c-.3.1-1.1.3-2.2.3-2.9 0-4.7-1.8-4.7-4.8v-9.2h-3.2v-3h.9c1.8 0 2.6-1.1 2.6-2.6v-2.7h3v5.2zm7.7 16.8V58.5h3.1v2.2c1.1-1.9 3.2-2.7 5.1-2.7 2.1 0 4.1 1 5 3.2 1.3-2.4 3.5-3.2 5.6-3.2 2.9 0 5.8 2 5.8 6.4v10.9h-3.3V64.7c0-2.2-1.1-3.9-3.6-3.9-2.3 0-3.9 1.8-3.9 4.2v10.2h-3.3V64.7c0-2.2-1.1-3.9-3.6-3.9-2.3 0-3.9 1.8-3.9 4.3v10.2h-3zm29.9 0V50h3.3v25.3h-3.3z" fill="#383838"/><path fill="#ADD6FA" d="M66.8 109.3V107h15.5v2.4H66.8z"/><path fill="url(#a)" d="M60.1 108.5c-.2 0-.4 0-.6-.1-.8-.3-1.1-1.2-.8-2l7.6-17c.3-.8 1.2-1.1 2-.8.8.3 1.1 1.2.8 2l-7.6 17c-.3.5-.8.9-1.4.9z"/></svg>