<svg id="Illos" xmlns="http://www.w3.org/2000/svg" viewBox="0 0 240 116"><style>.st0{fill:#1ecac7}.st1{fill:#fff}.st2{fill:#c3c3c3}</style><path d="M138.9 101.1H129c-2.4 0-4.4-2-4.4-4.4v-6.4c0-.7-.7-1.7-1.4-1.9l-3-1.2c-.8-.4-1.9-.2-2.4.3l-4.5 4.5c-1.7 1.7-4.5 1.7-6.2 0l-7-7c-.8-.8-1.3-1.9-1.3-3.1s.5-2.3 1.3-3.1l4.5-4.5c.5-.5.7-1.7.4-2.3l-1.2-3c-.3-.8-1.2-1.5-1.9-1.5h-6.4c-2.4 0-4.4-2-4.4-4.4v-9.9c0-2.4 2-4.4 4.4-4.4h6.4c.7 0 1.7-.7 1.9-1.4l1.2-3c.4-.8.2-1.9-.3-2.4l-4.5-4.5c-.8-.8-1.3-1.9-1.3-3.1s.5-2.3 1.3-3.1l7-7c.8-.8 1.9-1.3 3.1-1.3 1.2 0 2.3.5 3.1 1.3l4.5 4.5c.5.5 1.7.7 2.3.4l3-1.2c.8-.3 1.5-1.2 1.5-1.9v-6.4c0-2.4 2-4.4 4.4-4.4h9.9c2.4 0 4.4 2 4.4 4.4V26c0 .7.7 1.7 1.4 1.9l3 1.2c.8.4 1.9.2 2.4-.3l4.5-4.5c1.7-1.7 4.5-1.7 6.3 0l7 7c.8.8 1.3 1.9 1.3 3.1 0 1.2-.5 2.3-1.3 3.1l-4.5 4.5c-.5.5-.7 1.7-.4 2.3l1.2 3c.3.8 1.2 1.5 1.9 1.5h6.4c2.4 0 4.4 2 4.4 4.4v9.9c0 2.4-2 4.4-4.4 4.4h-6.4c-.7 0-1.7.7-1.9 1.4l-1.2 3c-.4.8-.2 1.9.3 2.4l4.5 4.5c.8.8 1.3 1.9 1.3 3.1 0 1.2-.5 2.3-1.3 3.1l-7 7c-1.7 1.7-4.5 1.7-6.3 0l-4.5-4.5c-.5-.5-1.6-.7-2.3-.4l-3 1.2c-.8.3-1.5 1.2-1.5 1.9v6.4c.1 2.5-1.9 4.5-4.4 4.5zm-19.5-17.6c.8 0 1.6.2 2.3.5l2.8 1.1c2 .7 3.6 2.9 3.6 5.2v6.4c0 .5.4 1 1 1h9.9c.5 0 1-.4 1-1v-6.4c0-2.2 1.6-4.5 3.7-5.2l2.8-1.1c1.9-1 4.6-.5 6.2 1.1l4.5 4.5c.4.4 1 .4 1.4 0l7-7c.2-.2.3-.5.3-.7 0-.1 0-.4-.3-.7l-4.5-4.5c-1.6-1.6-2-4.3-1-6.3l1.1-2.8c.6-2 2.9-3.6 5.1-3.6h6.4c.5 0 1-.4 1-1v-9.9c0-.5-.4-1-1-1h-6.4c-2.2 0-4.5-1.6-5.2-3.7l-1.1-2.8c-.9-1.9-.5-4.6 1.1-6.2l4.5-4.5c.2-.2.3-.5.3-.7 0-.2 0-.4-.3-.7l-7-7c-.4-.4-1-.4-1.4 0l-4.5 4.5c-1.6 1.6-4.3 2-6.3 1l-2.8-1.1c-2-.7-3.6-2.9-3.6-5.1v-6.4c0-.5-.4-1-1-1h-9.9c-.5 0-1 .4-1 1V26c0 2.2-1.6 4.5-3.7 5.2l-2.8 1.1c-1.9.9-4.6.5-6.2-1.1l-4.5-4.5c-.2-.2-.5-.3-.7-.3-.2 0-.4 0-.7.3l-7 7c-.2.2-.3.5-.3.7s0 .4.3.7l4.5 4.5c1.6 1.6 2 4.3 1 6.3l-1.1 2.8c-.7 2-2.9 3.6-5.1 3.6h-6.4c-.5 0-1 .4-1 1v9.9c0 .5.4 1 1 1h6.4c2.2 0 4.5 1.6 5.2 3.7l1.1 2.8c.9 1.9.5 4.6-1.1 6.2l-4.5 4.5c-.2.2-.3.5-.3.7 0 .2 0 .4.3.7l7 7c.4.4 1 .4 1.4 0l4.5-4.5c1-1.2 2.5-1.8 4-1.8z"/><path class="st0" d="M172.6 50.5h-6.4c-1.5 0-3.1-1.1-3.5-2.6l-1.2-2.9c-.7-1.3-.3-3.3.7-4.3l4.5-4.5c1.1-1 1.1-2.8 0-3.8l-7-7c-1.1-1-2.8-1-3.8 0l-4.5 4.5c-1.1 1-3 1.4-4.3.7l-2.9-1.2c-1.4-.5-2.5-2.1-2.5-3.5v-6.4c0-1.5-1.2-2.7-2.7-2.7h-9.9c-1.5 0-2.7 1.2-2.7 2.7V26c0 1.5-1.1 3.1-2.6 3.5l-2.9 1.2c-1.3.7-3.3.3-4.3-.7l-4.5-4.5c-1-1-2.8-1-3.8 0l-7 7c-1 1-1 2.8 0 3.8l4.5 4.5c1 1 1.4 3 .7 4.3l-1.2 2.9c-.5 1.4-2.1 2.6-3.5 2.6h-6.4c-1.5 0-2.7 1.2-2.7 2.7v9.9c0 1.5 1.2 2.7 2.7 2.7h6.4c1.5 0 3.1 1.2 3.5 2.6l1.2 2.9c.7 1.3.3 3.3-.7 4.3l-4.5 4.5c-1 1-1 2.8 0 3.8l7 7c1 1 2.8 1 3.8 0l4.5-4.5c1-1.1 3-1.4 4.3-.7l2.9 1.2c1.4.5 2.6 2.1 2.6 3.5v6.4c0 1.5 1.2 2.7 2.7 2.7h9.9c1.5 0 2.7-1.2 2.7-2.7v-6.4c0-1.5 1.1-3.1 2.5-3.5l2.9-1.2c1.3-.7 3.3-.3 4.3.7l4.5 4.5c1.1 1 2.8 1 3.8 0l7-7c1.1-1 1.1-2.8 0-3.8l-4.5-4.5c-1-1-1.4-3-.7-4.3l1.2-2.9c.5-1.4 2.1-2.6 3.5-2.6h6.4c1.5 0 2.7-1.2 2.7-2.7v-9.9c0-1.6-1.2-2.8-2.7-2.8z"/><path d="M138.9 101.1H129c-2.4 0-4.4-2-4.4-4.4v-6.4c0-.7-.7-1.7-1.4-1.9l-3-1.2c-.8-.4-1.9-.2-2.4.3l-4.5 4.5c-1.7 1.7-4.5 1.7-6.2 0l-7-7c-.8-.8-1.3-1.9-1.3-3.1s.5-2.3 1.3-3.1l4.5-4.5c.5-.5.7-1.7.4-2.3l-1.2-3c-.3-.8-1.2-1.5-1.9-1.5h-6.4c-2.4 0-4.4-2-4.4-4.4v-9.9c0-2.4 2-4.4 4.4-4.4h6.4c.7 0 1.7-.7 1.9-1.4l1.2-3c.4-.8.2-1.9-.3-2.4l-4.5-4.5c-.8-.8-1.3-1.9-1.3-3.1s.5-2.3 1.3-3.1l7-7c.8-.8 1.9-1.3 3.1-1.3 1.2 0 2.3.5 3.1 1.3l4.5 4.5c.5.5 1.7.7 2.3.4l3-1.2c.8-.3 1.5-1.2 1.5-1.9v-6.4c0-2.4 2-4.4 4.4-4.4h9.9c2.4 0 4.4 2 4.4 4.4V26c0 .7.7 1.7 1.4 1.9l3 1.2c.8.4 1.9.2 2.4-.3l4.5-4.5c1.7-1.7 4.5-1.7 6.3 0l7 7c.8.8 1.3 1.9 1.3 3.1 0 1.2-.5 2.3-1.3 3.1l-4.5 4.5c-.5.5-.7 1.7-.4 2.3l1.2 3c.3.8 1.2 1.5 1.9 1.5h6.4c2.4 0 4.4 2 4.4 4.4v9.9c0 2.4-2 4.4-4.4 4.4h-6.4c-.7 0-1.7.7-1.9 1.4l-1.2 3c-.4.8-.2 1.9.3 2.4l4.5 4.5c.8.8 1.3 1.9 1.3 3.1 0 1.2-.5 2.3-1.3 3.1l-7 7c-1.7 1.7-4.5 1.7-6.3 0l-4.5-4.5c-.5-.5-1.6-.7-2.3-.4l-3 1.2c-.8.3-1.5 1.2-1.5 1.9v6.4c.1 2.5-1.9 4.5-4.4 4.5zm-19.5-17.6c.8 0 1.6.2 2.3.5l2.8 1.1c2 .7 3.6 2.9 3.6 5.2v6.4c0 .5.4 1 1 1h9.9c.5 0 1-.4 1-1v-6.4c0-2.2 1.6-4.5 3.7-5.2l2.8-1.1c1.9-1 4.6-.5 6.2 1.1l4.5 4.5c.4.4 1 .4 1.4 0l7-7c.2-.2.3-.5.3-.7 0-.1 0-.4-.3-.7l-4.5-4.5c-1.6-1.6-2-4.3-1-6.3l1.1-2.8c.6-2 2.9-3.6 5.1-3.6h6.4c.5 0 1-.4 1-1v-9.9c0-.5-.4-1-1-1h-6.4c-2.2 0-4.5-1.6-5.2-3.7l-1.1-2.8c-.9-1.9-.5-4.6 1.1-6.2l4.5-4.5c.2-.2.3-.5.3-.7 0-.2 0-.4-.3-.7l-7-7c-.4-.4-1-.4-1.4 0l-4.5 4.5c-1.6 1.6-4.3 2-6.3 1l-2.8-1.1c-2-.7-3.6-2.9-3.6-5.1v-6.4c0-.5-.4-1-1-1h-9.9c-.5 0-1 .4-1 1V26c0 2.2-1.6 4.5-3.7 5.2l-2.8 1.1c-1.9.9-4.6.5-6.2-1.1l-4.5-4.5c-.2-.2-.5-.3-.7-.3-.2 0-.4 0-.7.3l-7 7c-.2.2-.3.5-.3.7s0 .4.3.7l4.5 4.5c1.6 1.6 2 4.3 1 6.3l-1.1 2.8c-.7 2-2.9 3.6-5.1 3.6h-6.4c-.5 0-1 .4-1 1v9.9c0 .5.4 1 1 1h6.4c2.2 0 4.5 1.6 5.2 3.7l1.1 2.8c.9 1.9.5 4.6-1.1 6.2l-4.5 4.5c-.2.2-.3.5-.3.7 0 .2 0 .4.3.7l7 7c.4.4 1 .4 1.4 0l4.5-4.5c1-1.2 2.5-1.8 4-1.8z"/><circle class="st1" cx="134" cy="58.1" r="13"/><path d="M134 72.9c-8.1 0-14.7-6.6-14.7-14.7s6.6-14.7 14.7-14.7 14.7 6.6 14.7 14.7-6.6 14.7-14.7 14.7zm0-26c-6.2 0-11.3 5.1-11.3 11.3s5.1 11.3 11.3 11.3c6.2 0 11.3-5.1 11.3-11.3s-5.1-11.3-11.3-11.3z"/><path class="st1" d="M64.7 1.7H128v112.5H64.7V1.7z"/><path d="M128.1 116H64.7c-.5 0-.9-.2-1.2-.5-.3-.3-.5-.8-.5-1.2V1.7c0-1 .8-1.7 1.7-1.7H128c1 0 1.7.8 1.7 1.7v112.5c.1 1-.7 1.8-1.6 1.8zm-61.6-3.5h59.9V3.5H66.5v109z"/><path class="st2" d="M73.9 13.4h45v77.7h-45V13.4z"/><path d="M118.9 92.9h-45c-1 0-1.7-.8-1.7-1.7V13.4c0-1 .8-1.7 1.7-1.7h45c1 0 1.7.8 1.7 1.7v77.7c0 1-.7 1.8-1.7 1.8zm-43.3-3.5h41.5V15.2H75.6v74.2zM99.9 104.4h-7.2c-1 0-1.7-.8-1.7-1.7s.8-1.7 1.7-1.7h7.2c1 0 1.7.8 1.7 1.7s-.7 1.7-1.7 1.7z"/></svg>