<svg id="Layer_1" xmlns="http://www.w3.org/2000/svg" viewBox="0 0 240 116"><style>.st0{fill:#1ecac7}.st1{fill:#c8f5ee}.st2{fill:#85e8da}.st3{fill:#fff}</style><path d="M191.9 115.9H35.1c-1 0-1.8-.8-1.8-1.8V2c0-1 .8-1.8 1.8-1.8h141.4c1 0 1.8.8 1.8 1.8s-.8 1.8-1.8 1.8H36.9v108.7h153.3V17.6c0-1 .8-1.8 1.8-1.8s1.8.8 1.8 1.8v96.6c-.1.9-.9 1.7-1.9 1.7z"/><path d="M113.6 115.9c-1 0-1.8-.8-1.8-1.8V2c0-1 .8-1.8 1.8-1.8s1.8.8 1.8 1.8v112.2c0 .9-.8 1.7-1.8 1.7z"/><path class="st0" d="M113.6 2h78.3v15.2h-78.3z"/><path d="M191.9 18.9h-78.3c-1 0-1.8-.8-1.8-1.8V1.9c0-1 .8-1.8 1.8-1.8h78.3c1 0 1.8.8 1.8 1.8v15.2c0 1-.8 1.8-1.8 1.8zm-76.5-3.5h74.8V3.7h-74.8v11.7z"/><path class="st1" d="M35.1 2h78.3v15.2H35.1z"/><path d="M115.2 18.9H33.4V.2h81.8v18.7zm-78.3-3.5h74.8V3.7H36.9v11.7z"/><circle cx="123.6" cy="9.6" r="1.9"/><circle cx="132.6" cy="9.6" r="1.9"/><circle cx="141.9" cy="9.6" r="1.9"/><path d="M47.4 115.7c-1 0-1.8-.8-1.8-1.8V17.3c0-1 .8-1.8 1.8-1.8s1.8.8 1.8 1.8v96.6c0 1-.8 1.8-1.8 1.8zM69.6 32H56.9c-1 0-1.8-.8-1.8-1.8s.8-1.8 1.8-1.8h12.7c1 0 1.8.8 1.8 1.8s-.8 1.8-1.8 1.8zM75.9 40.6h-19c-1 0-1.8-.8-1.8-1.8s.8-1.8 1.8-1.8h19c1 0 1.8.8 1.8 1.8s-.8 1.8-1.8 1.8z"/><path class="st2" d="M91.9 40.6H81.4c-1 0-1.8-.8-1.8-1.8s.8-1.8 1.8-1.8h10.5c1 0 1.8.8 1.8 1.8s-.8 1.8-1.8 1.8zM79.9 49H68.6c-1 0-1.8-.8-1.8-1.8s.8-1.8 1.8-1.8h11.3c1 0 1.8.8 1.8 1.8s-.8 1.8-1.8 1.8z"/><path d="M103.4 49H85c-1 0-1.8-.8-1.8-1.8s.8-1.8 1.8-1.8h18.4c1 0 1.8.8 1.8 1.8s-.8 1.8-1.8 1.8zM103.4 40.6h-6.3c-1 0-1.8-.8-1.8-1.8s.8-1.8 1.8-1.8h6.3c1 0 1.8.8 1.8 1.8s-.8 1.8-1.8 1.8zM63.2 49h-6.3c-1 0-1.8-.8-1.8-1.8s.8-1.8 1.8-1.8h6.3c1 0 1.8.8 1.8 1.8s-.8 1.8-1.8 1.8zM56.9 62.5c-1 0-1.8-.8-1.8-1.8s.8-1.8 1.8-1.8h12.7c1 0 1.8.8 1.8 1.8s-.8 1.8-1.8 1.8H56.9z"/><path class="st2" d="M75.9 71.1h-19c-1 0-1.8-.8-1.8-1.8s.8-1.8 1.8-1.8h19c1 0 1.8.8 1.8 1.8s-.8 1.8-1.8 1.8z"/><path d="M91.9 71.1H81.4c-1 0-1.8-.8-1.8-1.8s.8-1.8 1.8-1.8h10.5c1 0 1.8.8 1.8 1.8s-.8 1.8-1.8 1.8zM79.9 79.5H68.6c-1 0-1.8-.8-1.8-1.8s.8-1.8 1.8-1.8h11.3c1 0 1.8.8 1.8 1.8s-.8 1.8-1.8 1.8z"/><path class="st2" d="M103.4 79.5H85c-1 0-1.8-.8-1.8-1.8s.8-1.8 1.8-1.8h18.4c1 0 1.8.8 1.8 1.8s-.8 1.8-1.8 1.8z"/><path d="M103.4 71.1h-6.3c-1 0-1.8-.8-1.8-1.8s.8-1.8 1.8-1.8h6.3c1 0 1.8.8 1.8 1.8s-.8 1.8-1.8 1.8zM63.2 79.5h-6.3c-1 0-1.8-.8-1.8-1.8s.8-1.8 1.8-1.8h6.3c1 0 1.8.8 1.8 1.8s-.8 1.8-1.8 1.8zM181.7 49.6h-58.2c-1 0-1.8-.8-1.8-1.8V28.9c0-1 .8-1.8 1.8-1.8h58.2c1 0 1.8.8 1.8 1.8v18.9c.1 1-.8 1.8-1.8 1.8zm-56.5-3.5h54.7V30.7h-54.7v15.4zM181.7 104.3h-58.2c-1 0-1.8-.8-1.8-1.8V83.6c0-1 .8-1.8 1.8-1.8h58.2c1 0 1.8.8 1.8 1.8v18.9c.1 1-.8 1.8-1.8 1.8zm-56.5-3.5h54.7V85.4h-54.7v15.4z"/><path class="st1" d="M146.9 56.2H192v18.9h-45.1z"/><path d="M191.9 76.8h-45.1c-1 0-1.8-.8-1.8-1.8V56.1c0-1 .8-1.8 1.8-1.8h45.1c1 0 1.8.8 1.8 1.8v19c-.1 1-.8 1.7-1.8 1.7zm-43.3-3.5h41.6V57.9h-41.6v15.4z"/><g><path d="M204.9 76.7h-4c-1 0-1.8-.8-1.8-1.8s.8-1.8 1.8-1.8h2.2v-2.2c0-1 .8-1.8 1.8-1.8s1.8.8 1.8 1.8v4c-.1 1-.8 1.8-1.8 1.8zM195.9 76.7h-4c-1 0-1.8-.8-1.8-1.8v-4c0-1 .8-1.8 1.8-1.8s1.8.8 1.8 1.8v2.2h2.2c1 0 1.8.8 1.8 1.8s-.8 1.8-1.8 1.8zM191.9 61.7c-1 0-1.8-.8-1.8-1.8v-4c0-1 .8-1.8 1.8-1.8h4c1 0 1.8.8 1.8 1.8s-.8 1.8-1.8 1.8h-2.2V60c0 1-.8 1.7-1.8 1.7zM204.9 61.7c-1 0-1.8-.8-1.8-1.8v-2.3h-2.2c-1 0-1.8-.8-1.8-1.8s.8-1.8 1.8-1.8h4c1 0 1.8.8 1.8 1.8v4c-.1 1.2-.8 1.9-1.8 1.9z"/></g><g><path class="st3" d="M175.4 76.8l-1.3-13.3 11.8 6.1-3.3 2.3 3.8 5.5-3.7 2.4-3.6-5.4z"/><path d="M182.7 81.6c-.6 0-1.1-.3-1.4-.8l-2.8-4-2.2 1.4c-.5.3-1.2.4-1.7.1-.6-.3-.9-.8-1-1.4l-1.2-13.3c-.1-.6.2-1.3.8-1.6.5-.4 1.2-.4 1.8-.1l11.8 6.2c.5.3.9.8.9 1.4 0 .6-.2 1.2-.8 1.5l-1.9 1.3 2.8 4c.3.4.4.9.3 1.3-.1.5-.4.9-.7 1.1l-3.7 2.5c-.3.3-.6.4-1 .4zm-3.6-9c.6 0 1.1.3 1.4.8l2.8 4 .8-.5-2.8-4c-.3-.4-.4-.9-.3-1.3.1-.5.3-.9.7-1.1l.9-.6-6.4-3.3.7 7.2 1.2-.8c.3-.3.5-.4 1-.4z"/></g><g><path d="M155.9 71.4c-.5 0-.9-.2-1.2-.5l-2.8-2.8c-.7-.7-.7-1.8 0-2.5s1.8-.7 2.5 0l1.3 1.3 4-5.8c.5-.8 1.6-1 2.4-.5.8.5 1 1.6.5 2.4l-5.2 7.6c-.3.4-.8.7-1.3.8h-.2z"/></g></svg>