<svg id="Layer_1" xmlns="http://www.w3.org/2000/svg" viewBox="0 0 240 116"><style>.st0{fill:#fff}.st1{fill:none}.st2{fill:#1ecac7}</style><g id="Layer_1_1_"><path class="st0" d="M135.1 113.9H107l2.8-29.4h22.5z"/><path d="M135.1 115.6H107c-.5 0-1-.2-1.3-.6s-.5-.9-.4-1.3l2.8-29.4c.1-.9.8-1.6 1.7-1.6h22.5c.9 0 1.7.7 1.7 1.6l2.8 29.2c0 .1.1.3.1.4 0 1-.8 1.7-1.8 1.7zm-26.2-3.5h24.3l-2.5-25.9h-19.3l-2.5 25.9z"/><path class="st1" d="M93.9 114.1h54.3"/><path d="M148.2 115.9H93.9c-1 0-1.8-.8-1.8-1.8s.8-1.8 1.8-1.8h54.3c1 0 1.8.8 1.8 1.8s-.9 1.8-1.8 1.8z"/><g><path class="st0" d="M53.5 1.8h132.6v89.5H53.5z"/><path d="M186.1 93.1H53.5c-1 0-1.8-.8-1.8-1.8V1.8c0-1 .8-1.8 1.8-1.8h132.6c1 0 1.8.8 1.8 1.8v89.5c0 1-.8 1.8-1.8 1.8zM55.3 89.6h129.1v-86H55.3v86z"/><g><path class="st0" d="M178.3 83.6H61l.1-74.1h117.4z"/><path d="M61 85.3c-.5 0-.9-.2-1.2-.5s-.5-.8-.5-1.2l.1-74.1c0-1 .8-1.7 1.8-1.7h117.4c.5 0 .9.2 1.2.5s.5.8.5 1.2l-.1 74.1c0 1-.8 1.7-1.8 1.7H61zm1.9-74.1l-.1 70.6h113.9l.1-70.6H62.9z"/></g></g><g><path d="M149.2 59.5c-.5 0-1-.2-1.4-.7-.6-.8-.4-1.9.3-2.5L161.6 46l-13.4-10.3c-.8-.6-.9-1.7-.3-2.5s1.7-.9 2.5-.3l15.2 11.7a1.75 1.75 0 0 1 0 2.8l-15.2 11.7c-.4.2-.8.4-1.2.4z"/></g><g><path d="M90.7 59.5c-.4 0-.7-.1-1.1-.4L74.4 47.4a1.75 1.75 0 0 1 0-2.8l15.2-11.7c.8-.6 1.9-.4 2.5.3.6.8.4 1.9-.3 2.5L78.3 46l13.4 10.3c.8.6.9 1.7.3 2.5-.3.4-.8.7-1.3.7z"/></g><g><path d="M122.1 66.9h-4.4c-1.6 0-3-1.3-3-3v-2.8l-1.3-.5s-.1 0-.1-.1l-1.9 2c-1.1 1.1-3.1 1.1-4.2 0l-3.1-3.1c-.6-.6-.9-1.3-.9-2.1s.3-1.5.9-2.1l2-2-.6-1.3v-.1l-2.8.1c-1.6 0-3-1.3-3-2.9v-4.4c0-1.6 1.3-3 3-3h2.8l.5-1.3s0-.1.1-.1l-2-1.9c-.6-.6-.9-1.3-.9-2.1s.3-1.5.9-2.1l3.1-3.1c1.1-1.1 3.1-1.1 4.2 0l2 2 1.3-.6h.1l-.1-2.8c0-1.6 1.3-3 3-3h4.4c1.6 0 3 1.3 3 3v2.8l1.3.5s.1 0 .1.1l1.9-2c1.1-1.1 3.1-1.1 4.2 0l3.1 3.1c.6.6.9 1.3.9 2.1s-.3 1.5-.9 2.1l-2 2 .6 1.3v.1h2.8c1.6 0 2.9 1.3 2.9 3v4.4c0 1.6-1.3 2.9-2.9 2.9h-2.8l-.5 1.3s0 .1-.1.1l2 1.9c.6.6.9 1.3.9 2.1s-.3 1.5-.9 2.1l-3.1 3.1c-1.1 1.1-3.1 1.1-4.2 0l-2-2-1.3.6h-.1l.1 2.8c0 1.6-1.4 2.9-3 2.9zm-3.8-3.5h3.3v-2.3c0-1.4.9-2.7 2.3-3.2l1.2-.5c1.2-.6 2.9-.3 3.9.7l1.6 1.6 2.3-2.3-1.6-1.6c-1-1-1.3-2.6-.7-3.9l.5-1.2c.5-1.3 1.8-2.3 3.2-2.3h2.3v-3.3h-2.3c-1.4 0-2.8-1-3.2-2.3l-.5-1.2c-.6-1.2-.3-2.9.7-3.9l1.6-1.6-2.3-2.3-1.6 1.6c-1 1-2.6 1.3-3.9.7l-1.2-.5c-1.3-.5-2.3-1.8-2.3-3.2v-2.3h-3.3v2.3c0 1.4-1 2.7-2.3 3.2l-1.2.5c-1.2.6-2.9.3-3.9-.7l-1.6-1.6-2.3 2.3 1.6 1.6c1 1 1.3 2.6.7 3.9l-.5 1.2c-.5 1.3-1.8 2.3-3.2 2.3h-2.3v3.3h2.3c1.4 0 2.7 1 3.2 2.3l.5 1.2c.6 1.2.3 2.9-.7 3.9l-1.6 1.6 2.3 2.3 1.6-1.6c.9-1 2.6-1.3 3.9-.7l1.2.5c1.3.5 2.3 1.8 2.3 3.2v2.3z"/><path class="st2" d="M137.1 43.3h-2.9c-.7 0-1.4-.5-1.6-1.1l-.5-1.3c-.3-.6-.2-1.5.3-1.9l2-2c.5-.5.5-1.2 0-1.7l-3.1-3.1c-.5-.5-1.2-.5-1.7 0l-2 2c-.5.5-1.3.6-1.9.3l-1.3-.5c-.6-.2-1.1-.9-1.1-1.6v-2.8c0-.7-.5-1.2-1.2-1.2h-4.4c-.7 0-1.2.5-1.2 1.2v2.8c0 .7-.5 1.4-1.1 1.6l-1.3.5c-.6.3-1.5.2-1.9-.3l-2-2c-.5-.5-1.2-.5-1.7 0l-3.1 3.1c-.5.5-.5 1.2 0 1.7l2 2c.5.5.6 1.3.3 1.9l-.5 1.3c-.2.6-.9 1.1-1.6 1.1h-2.8c-.7 0-1.2.5-1.2 1.2v4.4c0 .7.5 1.2 1.2 1.2h2.8c.7 0 1.4.5 1.6 1.1l.5 1.3c.3.6.2 1.5-.3 1.9l-2 2c-.5.5-.5 1.2 0 1.7l3.1 3.1c.5.5 1.2.5 1.7 0l2-2c.5-.5 1.3-.6 1.9-.3l1.3.5c.6.2 1.1.9 1.1 1.6v2.8c0 .7.5 1.2 1.2 1.2h4.4c.7 0 1.2-.5 1.2-1.2V61c0-.7.5-1.4 1.1-1.6l1.3-.5c.6-.3 1.5-.2 1.9.3l2 2c.5.5 1.2.5 1.7 0l3.1-3.1c.5-.5.5-1.2 0-1.7l-2-2c-.5-.5-.6-1.3-.3-1.9l.5-1.3c.2-.6.9-1.1 1.6-1.1h2.9c.7 0 1.2-.5 1.2-1.2v-4.4c0-.6-.5-1.2-1.2-1.2z"/><path d="M122.1 66.9h-4.4c-1.6 0-3-1.3-3-3v-2.8l-1.3-.5s-.1 0-.1-.1l-1.9 2c-1.1 1.1-3.1 1.1-4.2 0l-3.1-3.1c-.6-.6-.9-1.3-.9-2.1s.3-1.5.9-2.1l2-2-.6-1.3v-.1l-2.8.1c-1.6 0-3-1.3-3-2.9v-4.4c0-1.6 1.3-3 3-3h2.8l.5-1.3s0-.1.1-.1l-2-1.9c-.6-.6-.9-1.3-.9-2.1s.3-1.5.9-2.1l3.1-3.1c1.1-1.1 3.1-1.1 4.2 0l2 2 1.3-.6h.1l-.1-2.8c0-1.6 1.3-3 3-3h4.4c1.6 0 3 1.3 3 3v2.8l1.3.5s.1 0 .1.1l1.9-2c1.1-1.1 3.1-1.1 4.2 0l3.1 3.1c.6.6.9 1.3.9 2.1s-.3 1.5-.9 2.1l-2 2 .6 1.3v.1h2.8c1.6 0 2.9 1.3 2.9 3v4.4c0 1.6-1.3 2.9-2.9 2.9h-2.8l-.5 1.3s0 .1-.1.1l2 1.9c.6.6.9 1.3.9 2.1s-.3 1.5-.9 2.1l-3.1 3.1c-1.1 1.1-3.1 1.1-4.2 0l-2-2-1.3.6h-.1l.1 2.8c0 1.6-1.4 2.9-3 2.9zm-3.8-3.5h3.3v-2.3c0-1.4.9-2.7 2.3-3.2l1.2-.5c1.2-.6 2.9-.3 3.9.7l1.6 1.6 2.3-2.3-1.6-1.6c-1-1-1.3-2.6-.7-3.9l.5-1.2c.5-1.3 1.8-2.3 3.2-2.3h2.3v-3.3h-2.3c-1.4 0-2.8-1-3.2-2.3l-.5-1.2c-.6-1.2-.3-2.9.7-3.9l1.6-1.6-2.3-2.3-1.6 1.6c-1 1-2.6 1.3-3.9.7l-1.2-.5c-1.3-.5-2.3-1.8-2.3-3.2v-2.3h-3.3v2.3c0 1.4-1 2.7-2.3 3.2l-1.2.5c-1.2.6-2.9.3-3.9-.7l-1.6-1.6-2.3 2.3 1.6 1.6c1 1 1.3 2.6.7 3.9l-.5 1.2c-.5 1.3-1.8 2.3-3.2 2.3h-2.3v3.3h2.3c1.4 0 2.7 1 3.2 2.3l.5 1.2c.6 1.2.3 2.9-.7 3.9l-1.6 1.6 2.3 2.3 1.6-1.6c.9-1 2.6-1.3 3.9-.7l1.2.5c1.3.5 2.3 1.8 2.3 3.2v2.3z"/><g><circle class="st0" cx="119.9" cy="46.7" r="5.8"/><path d="M119.9 54.3c-4.2 0-7.6-3.4-7.6-7.6s3.4-7.6 7.6-7.6 7.6 3.4 7.6 7.6-3.4 7.6-7.6 7.6zm0-11.6c-2.2 0-4.1 1.8-4.1 4.1s1.8 4.1 4.1 4.1c2.2 0 4.1-1.8 4.1-4.1s-1.9-4.1-4.1-4.1z"/></g></g></g></svg>