<svg xmlns="http://www.w3.org/2000/svg" viewBox="0 0 250 160"><pattern x="-4579.4" y="-1230.4" width="16" height="17.9" patternUnits="userSpaceOnUse" id="a" viewBox="0 -17.9 16 17.9" overflow="visible"><path fill="none" d="M0 0h16v-17.9H0z"/><path fill="#383838" d="M0 0h16v-17.9H0z"/></pattern><path fill="#FFF" d="M.1-.1h250v160H.1z"/><path fill="#FFF" d="M155.2 137h-28.6l2.8-30h22.9"/><path fill="url(#a)" d="M155.2 138.5h-28.7c-.4 0-.8-.2-1.1-.5s-.4-.7-.4-1.2l2.9-30c.1-.8.7-1.4 1.5-1.4h22.9c.8 0 1.4.6 1.5 1.4l2.9 29.8v.4c0 .9-.6 1.5-1.5 1.5zm-27-3h25.4l-2.6-27h-20.2l-2.6 27z"/><path fill="url(#a)" d="M168.6 138.8h-55.3c-.8 0-1.5-.7-1.5-1.5s.7-1.5 1.5-1.5h55.3c.8 0 1.5.7 1.5 1.5s-.7 1.5-1.5 1.5z"/><path fill="#FFF" d="M72.1 22.8h135.2V114H72.1z"/><path fill="url(#a)" d="M207.2 115.5H72.1c-.8 0-1.5-.7-1.5-1.5V22.8c0-.8.7-1.5 1.5-1.5h135.2c.8 0 1.5.7 1.5 1.5V114c-.1.8-.7 1.5-1.6 1.5zm-133.6-3h132.2V24.3H73.6v88.2z"/><path fill="#FFF" d="M199.3 106.1H79.7l.1-75.5h119.7"/><path fill="url(#a)" d="M199.3 107.6H79.7c-.4 0-.8-.2-1.1-.4-.3-.3-.4-.7-.4-1.1l.1-75.5c0-.8.7-1.5 1.5-1.5h119.6c.4 0 .8.2 1.1.4.3.3.4.7.4 1.1l-.1 75.5c0 .8-.7 1.5-1.5 1.5zm-118.1-3h116.6l.1-72.5H81.3l-.1 72.5z"/><path fill="#FFF" d="M35.5 53.6h58.6v83.7H35.5z"/><path fill="url(#a)" d="M94.1 138.9H35.5c-.8 0-1.5-.7-1.5-1.5V53.6c0-.8.7-1.5 1.5-1.5h58.6c.8 0 1.5.7 1.5 1.5v83.7c0 .9-.7 1.6-1.5 1.6zm-57.1-3h55.6V55.1H37v80.8z"/><path fill="#FFF" d="M40.9 65.4h47.8v61.1H40.9z"/><path fill="url(#a)" d="M88.7 128H40.9c-.8 0-1.5-.7-1.5-1.5V65.4c0-.8.7-1.5 1.5-1.5h47.8c.8 0 1.5.7 1.5 1.5v61.1c0 .8-.7 1.5-1.5 1.5zm-46.3-3h44.8V66.9H42.4V125z"/><path fill="#FFF" d="M63.1 132h3.4"/><path fill="url(#a)" d="M66.5 133.5h-3.3c-.8 0-1.5-.7-1.5-1.5s.7-1.5 1.5-1.5h3.3c.8 0 1.5.7 1.5 1.5s-.7 1.5-1.5 1.5z"/><path fill="#ADD6FA" d="M145.5 67.6H134l-2.1 6.1h-7l11.2-29.9h7.7l11.1 29.9h-7.2l-2.2-6.1zm-9.3-6h7.2l-3.6-10.3-3.6 10.3z"/><path fill="url(#a)" d="M154.9 75.2h-7.3c-.6 0-1.2-.4-1.4-1l-1.8-5.1H135l-1.8 5.1c-.2.6-.8 1-1.4 1h-7c-.5 0-1-.2-1.2-.6s-.3-.9-.2-1.4l11.2-29.9c.2-.6.8-1 1.4-1h7.7c.6 0 1.2.4 1.4 1l11 29.6c.1.2.2.5.2.7.1.9-.5 1.6-1.4 1.6zm-6.2-3h4l-10-26.9h-5.6L127 72.2h3.8l1.8-5.1c.2-.6.8-1 1.4-1h11.5c.6 0 1.2.4 1.4 1l1.8 5.1zm-5.3-9.1h-7.2c-.5 0-.9-.2-1.2-.6s-.4-.9-.2-1.4l3.7-10.3c.2-.6.8-1 1.4-1 .6 0 1.2.4 1.4 1l3.6 10.3c.2.5.1 1-.2 1.4-.3.3-.8.6-1.3.6zm-5.1-3h3l-1.5-4.3-1.5 4.3zm-58.4 44.4s-.1 0 0 0h-7.3c-.6 0-1.2-.4-1.4-1l-1.8-5.1H60l-1.8 5.1c-.2.6-.8 1-1.4 1h-7c-.5 0-1-.2-1.2-.6s-.3-.9-.2-1.4l11.2-29.9c.2-.6.8-1 1.4-1h7.7c.6 0 1.2.4 1.4 1l11 29.6c.1.2.2.5.2.7.1.9-.6 1.6-1.4 1.6zm-6.2-3h4l-10-26.9h-5.6L52 101.5h3.8l1.8-5.1c.2-.6.8-1 1.4-1h11.5c.6 0 1.2.4 1.4 1l1.8 5.1zm-5.4-9.1h-7.2c-.5 0-.9-.2-1.2-.6s-.4-.9-.2-1.4L63.3 80c.2-.6.8-1 1.4-1 .6 0 1.2.4 1.4 1l3.6 10.3c.2.5.1 1-.2 1.4-.2.4-.7.7-1.2.7zm-5.1-3h3l-1.5-4.3-1.5 4.3z"/><path fill="#E4F1FD" d="M101.9 81.2h75.5v11.7h-75.5z"/><path fill="url(#a)" d="M177.4 94.4h-75.5c-.8 0-1.5-.7-1.5-1.5V81.2c0-.8.7-1.5 1.5-1.5h75.5c.8 0 1.5.7 1.5 1.5v11.7c0 .8-.7 1.5-1.5 1.5zm-74-3h72.5v-8.7h-72.5v8.7zm-22.6 20.9H48.7c-.8 0-1.5-.7-1.5-1.5s.7-1.5 1.5-1.5h32.2c.8 0 1.5.7 1.5 1.5s-.7 1.5-1.6 1.5zm0 7.9H48.7c-.8 0-1.5-.7-1.5-1.5s.7-1.5 1.5-1.5h32.2c.8 0 1.5.7 1.5 1.5s-.7 1.5-1.6 1.5z"/><path fill="#FFF" d="M185.3 84.7h29.5v52.4h-29.5z"/><path fill="url(#a)" d="M214.8 138.5h-29.5c-.8 0-1.5-.7-1.5-1.5V84.7c0-.4.2-.8.4-1.1s.7-.4 1.1-.4h29.5c.8 0 1.5.7 1.5 1.5V137c0 .9-.7 1.5-1.5 1.5zm-28-3h26.5V86.2h-26.5v49.3z"/><path fill="#FFF" d="M190.7 90.1h18.6v36.2h-18.6z"/><path fill="url(#a)" d="M209.3 127.8h-18.6c-.8 0-1.5-.7-1.5-1.5V90.1c0-.8.7-1.5 1.5-1.5h18.6c.8 0 1.5.7 1.5 1.5v36.2c0 .8-.6 1.5-1.5 1.5zm-17.1-3h15.6V91.6h-15.6v33.2z"/><path fill="#FFF" d="M198.3 131.7h3.4"/><path fill="url(#a)" d="M201.7 133.2h-3.3c-.8 0-1.5-.7-1.5-1.5s.7-1.5 1.5-1.5h3.3c.8 0 1.5.7 1.5 1.5s-.7 1.5-1.5 1.5zm.3-26.4h-4.1l-.8 2.1h-2.5l4-10.6h2.7l3.9 10.6h-2.6l-.6-2.1zm-3.3-2.2h2.6L200 101l-1.3 3.6zm5.2 9.7h-7.8c-.8 0-1.5-.7-1.5-1.5s.7-1.5 1.5-1.5h7.8c.8 0 1.5.7 1.5 1.5s-.6 1.5-1.5 1.5zm0 5.4h-7.8c-.8 0-1.5-.7-1.5-1.5s.7-1.5 1.5-1.5h7.8c.8 0 1.5.7 1.5 1.5s-.6 1.5-1.5 1.5z"/></svg>