<svg xmlns="http://www.w3.org/2000/svg" viewBox="0 0 250 160"><pattern x="-3862" y="-1228.4" width="16" height="17.9" patternUnits="userSpaceOnUse" id="a" viewBox="0 -17.9 16 17.9" overflow="visible"><path fill="none" d="M0 0h16v-17.9H0z"/><path fill="#383838" d="M0 0h16v-17.9H0z"/></pattern><path fill="#FFF" d="M0 0h250v160H0z"/><circle fill="#ADD6FA" cx="62.7" cy="37.9" r="15.2"/><path fill="url(#a)" d="M62.7 54.6c-9.2 0-16.7-7.5-16.7-16.7s7.5-16.7 16.7-16.7 16.7 7.5 16.7 16.7-7.5 16.7-16.7 16.7zm0-30.4c-7.6 0-13.7 6.2-13.7 13.7s6.2 13.7 13.7 13.7c7.6 0 13.7-6.2 13.7-13.7s-6.2-13.7-13.7-13.7z"/><circle fill="#E4F1FD" cx="62.7" cy="79.9" r="15.2"/><path fill="url(#a)" d="M62.7 96.6c-9.2 0-16.7-7.5-16.7-16.7s7.5-16.7 16.7-16.7 16.7 7.5 16.7 16.7-7.5 16.7-16.7 16.7zm0-30.4c-7.6 0-13.7 6.2-13.7 13.7s6.2 13.7 13.7 13.7c7.6 0 13.7-6.2 13.7-13.7s-6.2-13.7-13.7-13.7z"/><circle fill="#FFF" cx="62.7" cy="121.9" r="15.2"/><path fill="url(#a)" d="M62.7 138.6c-9.2 0-16.7-7.5-16.7-16.7s7.5-16.7 16.7-16.7 16.7 7.5 16.7 16.7-7.5 16.7-16.7 16.7zm0-30.5c-7.6 0-13.7 6.2-13.7 13.7 0 7.6 6.2 13.7 13.7 13.7 7.6 0 13.7-6.2 13.7-13.7 0-7.5-6.2-13.7-13.7-13.7zm80.6-36.9h-11.5c-.6 0-1.2-.4-1.4-1l-3-8.6h-16.1l-3 8.6c-.2.6-.8 1-1.4 1H95.8c-.5 0-1-.2-1.2-.6s-.3-.9-.2-1.4l17.8-47.3c.2-.6.8-1 1.4-1h12.2c.6 0 1.2.4 1.4 1l17.5 47c.1.2.2.5.2.7-.1.9-.8 1.6-1.6 1.6zm-10.4-3h8.2L124.7 24h-10.1L97.9 68.2h7.8l3-8.6c.2-.6.8-1 1.4-1h18.3c.6 0 1.2.4 1.4 1l3.1 8.6zM125.1 52h-11.5c-.5 0-.9-.2-1.2-.6s-.4-.9-.2-1.4l5.8-16.3c.2-.6.8-1 1.4-1 .6 0 1.2.4 1.4 1l5.7 16.3c.2.5.1 1-.2 1.4-.3.4-.7.6-1.2.6zm-9.3-3h7.2l-3.6-10.3-3.6 10.3zm86.6 35.3H95.8c-.8 0-1.5-.7-1.5-1.5s.7-1.5 1.5-1.5h106.6c.8 0 1.5.7 1.5 1.5s-.7 1.5-1.5 1.5zm-.2 26.9H95.7c-.8 0-1.5-.7-1.5-1.5s.7-1.5 1.5-1.5h106.6c.8 0 1.5.7 1.5 1.5s-.7 1.5-1.6 1.5zm0 27.2H95.7c-.8 0-1.5-.7-1.5-1.5s.7-1.5 1.5-1.5h106.6c.8 0 1.5.7 1.5 1.5s-.7 1.5-1.6 1.5zm0-40.6H95.7c-.8 0-1.5-.7-1.5-1.5s.7-1.5 1.5-1.5h106.6c.8 0 1.5.7 1.5 1.5s-.7 1.5-1.6 1.5zm0 26.9H95.7c-.8 0-1.5-.7-1.5-1.5s.7-1.5 1.5-1.5h106.6c.8 0 1.5.7 1.5 1.5s-.7 1.5-1.6 1.5zm.2-53.5h-45c-.8 0-1.5-.7-1.5-1.5V22.6c0-.8.7-1.5 1.5-1.5h45c.8 0 1.5.7 1.5 1.5v47.1c0 .8-.6 1.5-1.5 1.5zm-43.5-3h42V24.1h-42v44.1z"/></svg>