<?xml version="1.0" encoding="utf-8"?>
<!-- Generator: Adobe Illustrator 19.1.0, SVG Export Plug-In . SVG Version: 6.00 Build 0)  -->
<svg version="1.1" id="Illos" xmlns="http://www.w3.org/2000/svg" xmlns:xlink="http://www.w3.org/1999/xlink" x="0px" y="0px"
	 viewBox="-158 145 231.3 116" style="enable-background:new -158 145 231.3 116;" xml:space="preserve">
<style type="text/css">
	.st0{fill:#FFFFFF;}
	.st1{fill:#AED7F8;}
	.st2{fill:#E4F1FC;}
</style>
<title>Icons-</title>
<g>
	<g>
		<rect x="-156.2" y="146.8" class="st0" width="127.5" height="86"/>
	</g>
	<g>
		<path d="M-28.8,234.5h-127.5c-1,0-1.8-0.8-1.8-1.8v-86c0-1,0.8-1.8,1.8-1.8h127.5c1,0,1.8,0.8,1.8,1.8v86
			C-27,233.8-27.8,234.5-28.8,234.5z M-154.5,231h124v-82.5h-124V231z"/>
	</g>
</g>
<g>
	<g>
		<rect x="-148.8" y="154.5" class="st0" width="112.9" height="71.1"/>
	</g>
	<g>
		<path d="M-35.9,227.4h-112.9c-1,0-1.8-0.8-1.8-1.8v-71.1c0-1,0.8-1.8,1.8-1.8h112.9c1,0,1.8,0.8,1.8,1.8v71.1
			C-34.2,226.6-34.9,227.4-35.9,227.4z M-147.1,223.9h109.4v-67.6h-109.4V223.9z"/>
	</g>
</g>
<g>
	<g>
		<path class="st1" d="M-91.5,214.6c0,0.3-12.9-11.8-12.9-11.8l3.8-5.9h18.1l3.8,5.9L-91.5,214.6z"/>
	</g>
	<g>
		<path d="M-91.5,216.4c-1.1,0-3-1.8-14.1-12.3c-0.6-0.6-0.7-1.5-0.3-2.2l3.8-5.9c0.3-0.5,0.9-0.8,1.5-0.8h18.1
			c0.6,0,1.1,0.3,1.5,0.8l3.8,5.9c0.5,0.7,0.3,1.7-0.3,2.2l-12.8,11.8c-0.2,0.2-0.3,0.3-0.6,0.4C-91.1,216.3-91.3,216.4-91.5,216.4z
			 M-102.1,202.5c4.2,3.9,8.6,8,10.5,9.8l10.7-9.8l-2.5-3.9h-16.2L-102.1,202.5z"/>
	</g>
</g>
<g>
	<g>
		<path d="M-63.6,256.5h-55c-1,0-1.8-0.8-1.8-1.8s0.8-1.8,1.8-1.8h55c1,0,1.8,0.8,1.8,1.8S-62.6,256.5-63.6,256.5z"/>
	</g>
</g>
<g>
	<g>
		<polygon class="st0" points="-77.8,254.8 -104.3,254.8 -100.9,232.8 -81.2,232.8 		"/>
	</g>
	<g>
		<path d="M-77.9,256.5h-26.5c-0.5,0-1-0.2-1.3-0.6s-0.5-0.9-0.4-1.4l3.4-22c0.1-0.9,0.9-1.5,1.7-1.5h19.7c0.9,0,1.6,0.6,1.7,1.5
			l3.4,22c0.1,0.5-0.1,1-0.4,1.4S-77.3,256.5-77.9,256.5z M-102.3,253h22.4l-2.9-18.5h-16.7L-102.3,253z"/>
	</g>
</g>
<g>
	<g>
		<path d="M-81.4,179.7c-1,0-1.8-0.8-1.8-1.8s0.8-1.8,1.8-1.8c0.5,0,0.8-0.1,1-0.3c0.3-0.4,0.3-1.2,0.3-1.5c-0.4-2.5,0-4.3,1.3-5.6
			c1.6-1.7,3.9-1.4,4.2-1.4c1,0.1,1.6,1,1.5,2c-0.1,1-1,1.6-1.9,1.5c0,0-0.8-0.1-1.2,0.4c-0.4,0.4-0.5,1.3-0.3,2.5
			c0,0.2,0.4,2.6-1,4.4C-78.3,178.9-79.4,179.7-81.4,179.7z"/>
	</g>
</g>
<g>
	<g>
		<path d="M-75.3,188.5c-0.8,0-2.4-0.2-3.6-1.4c-1.2-1.3-1.6-3.1-1.3-5.5c0.1-0.3,0.1-1.2-0.3-1.6c-0.2-0.2-0.5-0.3-1-0.3
			c-1,0-1.8-0.8-1.8-1.8s0.8-1.8,1.8-1.8c2,0,3.1,0.8,3.7,1.5c1.4,1.7,1.1,4.1,1,4.4c-0.2,1.2-0.1,2.1,0.3,2.5
			c0.4,0.4,1.2,0.4,1.2,0.4c1-0.1,1.8,0.6,1.9,1.5c0.1,0.9-0.5,1.8-1.5,1.9C-74.8,188.5-75,188.5-75.3,188.5z"/>
	</g>
</g>
<g>
	<g>
		<path d="M-50,179.7c-2,0-3.1-0.8-3.7-1.5c-1.4-1.7-1.1-4.1-1-4.4c0.2-1.2,0.1-2.1-0.3-2.5c-0.4-0.4-1.2-0.4-1.2-0.4
			c-1,0.1-1.8-0.5-2-1.5c-0.1-1,0.5-1.8,1.5-2c0.3,0,2.5-0.3,4.2,1.4c1.2,1.2,1.6,3.1,1.3,5.5c-0.1,0.3-0.1,1.2,0.3,1.6
			c0.2,0.2,0.5,0.3,1,0.3c1,0,1.8,0.8,1.8,1.8S-49,179.7-50,179.7z"/>
	</g>
</g>
<g>
	<g>
		<path d="M-56.1,188.5c-0.3,0-0.5,0-0.6,0c-1-0.1-1.6-1-1.5-2c0.1-1,1-1.6,1.9-1.5c0,0,0.8,0.1,1.2-0.4c0.4-0.4,0.5-1.3,0.3-2.5
			c0-0.2-0.4-2.6,1-4.3c0.6-0.7,1.7-1.5,3.7-1.5c1,0,1.8,0.8,1.8,1.8s-0.8,1.8-1.8,1.8c-0.5,0-0.8,0.1-1,0.3
			c-0.3,0.4-0.3,1.2-0.3,1.5c0.4,2.4,0,4.3-1.3,5.6C-53.7,188.3-55.2,188.5-56.1,188.5z"/>
	</g>
</g>
<g>
	<path class="st1" d="M-68,189.2c-0.4,0-0.9-0.2-1.2-0.5c-8.1-8.1-3.6-17.6-0.1-21.5c0.6-0.7,1.8-0.8,2.5-0.1
		c0.7,0.6,0.8,1.8,0.1,2.5c-0.3,0.4-7.8,8.9-0.1,16.7c0.7,0.7,0.7,1.8,0,2.5C-67.1,189-67.6,189.2-68,189.2z"/>
</g>
<g>
	<path class="st1" d="M-63.3,189.2c-0.4,0-0.9-0.2-1.2-0.5c-0.7-0.7-0.7-1.8,0-2.5c3.3-3.3,4.3-7,3-11.2c-1-3.2-3-5.5-3-5.5
		c-0.6-0.7-0.6-1.8,0.1-2.5c0.7-0.7,1.8-0.6,2.5,0.1c3.5,3.9,8.1,13.4-0.1,21.5C-62.4,189-62.9,189.2-63.3,189.2z"/>
</g>
<g>
	<g>
		<path d="M-124.8,185.6c-0.3,0-0.7-0.1-1-0.3l-8.9-5.9c-0.5-0.3-0.8-0.9-0.8-1.5s0.3-1.1,0.8-1.5l8.9-5.9c0.8-0.5,1.9-0.3,2.4,0.5
			c0.5,0.8,0.3,1.9-0.5,2.4l-6.7,4.4l6.7,4.4c0.8,0.5,1,1.6,0.5,2.4C-123.7,185.3-124.2,185.6-124.8,185.6z"/>
	</g>
</g>
<g>
	<g>
		<path d="M-103.5,185.6c-0.6,0-1.1-0.3-1.5-0.8c-0.5-0.8-0.3-1.9,0.5-2.4l6.7-4.4l-6.7-4.4c-0.8-0.5-1-1.6-0.5-2.4
			c0.5-0.8,1.6-1,2.4-0.5l8.9,5.9c0.5,0.3,0.8,0.9,0.8,1.5s-0.3,1.1-0.8,1.5l-8.9,5.9C-102.9,185.5-103.2,185.6-103.5,185.6z"/>
	</g>
</g>
<g>
	<g>
		<path d="M-120.4,185.6c-0.2,0-0.5,0-0.7-0.2c-0.9-0.4-1.3-1.4-0.9-2.3l5.1-11.5c0.4-0.9,1.4-1.3,2.3-0.9c0.9,0.4,1.3,1.4,0.9,2.3
			l-5.1,11.5C-119.1,185.2-119.7,185.6-120.4,185.6z"/>
	</g>
</g>
<g>
	<path class="st1" d="M-108.2,185.6h-7.1c-1,0-1.8-0.8-1.8-1.8s0.8-1.8,1.8-1.8h7.1c1,0,1.8,0.8,1.8,1.8S-107.2,185.6-108.2,185.6z"
		/>
</g>
<g>
	<g>
		<rect x="-44" y="178.6" class="st0" width="98.1" height="66.2"/>
	</g>
	<g>
		<path d="M54.1,246.5H-44c-1,0-1.8-0.8-1.8-1.8v-66.2c0-1,0.8-1.8,1.8-1.8h98.1c1,0,1.8,0.8,1.8,1.8v66.2
			C55.8,245.7,55.1,246.5,54.1,246.5z M-42.3,243h94.6v-62.7h-94.6V243z"/>
	</g>
</g>
<g>
	<g>
		<polygon class="st0" points="71.5,259.2 -61.4,259.2 -44,244.8 54.1,244.8 		"/>
	</g>
	<g>
		<path d="M71.5,261h-133c-0.7,0-1.4-0.5-1.6-1.2c-0.3-0.7,0-1.5,0.5-1.9l17.4-14.5c0.3-0.3,0.7-0.4,1.1-0.4h98.1
			c0.4,0,0.8,0.1,1.1,0.4l17.4,14.5c0.6,0.5,0.8,1.2,0.5,1.9C72.9,260.5,72.3,261,71.5,261z M-56.6,257.5H66.7l-13.2-11h-96.8
			L-56.6,257.5z"/>
	</g>
</g>
<g>
	<g>
		<rect x="-37" y="185.4" class="st0" width="84" height="53"/>
	</g>
	<g>
		<path d="M47,240.1h-84c-1,0-1.8-0.8-1.8-1.8v-53c0-1,0.8-1.8,1.8-1.8h84c1,0,1.8,0.8,1.8,1.8v53C48.8,239.4,48,240.1,47,240.1z
			 M-35.2,236.6h80.5v-49.5h-80.5V236.6z"/>
	</g>
</g>
<g>
	<g>
		<circle class="st2" cx="6.3" cy="201.8" r="7.9"/>
	</g>
	<g>
		<path d="M6.3,211.4c-5.3,0-9.6-4.3-9.6-9.7c0-5.3,4.3-9.6,9.6-9.6c5.3,0,9.7,4.3,9.7,9.6C16,207.1,11.7,211.4,6.3,211.4z
			 M6.3,195.6c-3.4,0-6.1,2.8-6.1,6.1c0,3.4,2.8,6.2,6.1,6.2c3.4,0,6.2-2.8,6.2-6.2C12.5,198.4,9.7,195.6,6.3,195.6z"/>
	</g>
</g>
<g>
	<g>
		<path class="st2" d="M22.9,226.4c0,0,0-9.6-9.6-9.6H-0.8c0,0-9.6,0-9.6,9.6v4.7h33.4V226.4z"/>
	</g>
	<g>
		<path d="M22.9,232.8h-33.3c-1,0-1.8-0.8-1.8-1.8v-4.7c0-9,7.5-11.4,11.4-11.4h14.1c11.3,0,11.4,11.3,11.4,11.4v4.7
			C24.7,232.1,23.9,232.8,22.9,232.8z M-8.7,229.3h29.8v-2.9c0-0.8-0.3-7.9-7.9-7.9H-0.8c-0.8,0-7.9,0.3-7.9,7.9V229.3z"/>
	</g>
</g>
</svg>
