<svg id="Illos" xmlns="http://www.w3.org/2000/svg" viewBox="0 0 240 116"><style>.st0{fill:#1ecac7}</style><path class="st0" d="M121 74.8c0 .4-16-14.7-16-14.7l4.8-7.3h22.5l4.8 7.3c-.1 0-16.1 14.7-16.1 14.7z"/><path d="M121 76.5c-1.2 0-3.4-2.1-17.2-15.2-.6-.6-.7-1.5-.3-2.2l4.8-7.3c.3-.5.9-.8 1.4-.8h22.5c.6 0 1.1.3 1.4.8l4.8 7.3c.5.7.3 1.6-.3 2.2L122.2 76c-.2.2-.3.3-.6.4-.2 0-.3.1-.6.1zm-13.8-16.7c4.7 4.4 11.2 10.5 13.7 12.7l13.8-12.7-3.5-5.3h-20.6l-3.4 5.3z"/><path d="M186.4 93.1H53.6c-1 0-1.7-.8-1.7-1.7V1.7c0-1 .8-1.7 1.7-1.7h132.8c1 0 1.7.8 1.7 1.7v89.7c0 .9-.7 1.7-1.7 1.7zM55.3 89.7h129.4V3.5H55.3v86.2z"/><path d="M179 85.7H61.3c-1 0-1.7-.8-1.7-1.7V9.8c0-1 .8-1.7 1.7-1.7H179c1 0 1.7.8 1.7 1.7v74.1c0 1-.8 1.8-1.7 1.8zM63 82.2h114.2V11.6H63v70.6zm87.1 33.8H92.8c-1 0-1.7-.8-1.7-1.7s.8-1.7 1.7-1.7h57.3c1 0 1.7.8 1.7 1.7s-.7 1.7-1.7 1.7z"/><path d="M135.3 116h-27.6c-.5 0-1-.2-1.3-.6-.3-.4-.5-.9-.4-1.4l3.5-22.9c.1-.8.9-1.5 1.7-1.5h20.5c.9 0 1.6.6 1.7 1.5L137 114c.1.5-.1 1-.4 1.4-.3.4-.8.6-1.3.6zm-25.6-3.5h23.6l-3-19.4h-17.6l-3 19.4zm21.5-76.8c-1 0-1.7-.8-1.7-1.7 0-1 .8-1.7 1.7-1.7 1.1 0 1.4-.4 1.6-.5.6-.7.5-2 .4-2.3-.5-2.9 0-5.1 1.4-6.5 1.9-1.9 4.5-1.6 4.8-1.6.9.1 1.6 1 1.5 1.9-.1.9-1 1.6-1.9 1.5-.1 0-1.2-.1-1.9.6-.6.6-.8 1.8-.5 3.5.1.3.5 3.1-1.2 5.1-.6.7-1.9 1.7-4.2 1.7z"/><path d="M138.8 46.6c-1 0-2.8-.2-4.1-1.6-1.4-1.4-1.9-3.6-1.4-6.5.1-.4.1-1.7-.4-2.3-.1-.1-.4-.5-1.6-.5-1 0-1.7-.8-1.7-1.7 0-1 .8-1.7 1.7-1.7 2.3 0 3.5 1 4.2 1.8 1.7 2 1.2 4.8 1.2 5.1-.3 1.7-.1 2.9.5 3.5.7.7 1.9.6 1.9.6.9-.1 1.8.6 1.9 1.5.1.9-.5 1.8-1.5 1.9-.1-.1-.4-.1-.7-.1zm31.5-10.9c-2.3 0-3.5-1-4.2-1.8-1.7-2-1.2-4.8-1.2-5.1.3-1.7.1-2.9-.5-3.5-.7-.7-1.9-.6-1.9-.6-.9.1-1.8-.6-1.9-1.5-.1-.9.5-1.8 1.5-1.9.3 0 2.9-.3 4.8 1.6 1.4 1.5 1.9 3.6 1.4 6.5-.1.4-.1 1.7.4 2.3.1.1.4.5 1.6.5 1 0 1.7.8 1.7 1.7 0 1-.7 1.8-1.7 1.8z"/><path d="M162.8 46.6h-.7c-.9-.1-1.6-1-1.5-1.9.1-.9 1-1.6 1.9-1.5.1 0 1.2.1 1.9-.6.6-.6.8-1.8.5-3.5-.1-.3-.5-3.1 1.2-5.1.7-.8 1.9-1.8 4.2-1.8 1 0 1.7.8 1.7 1.7 0 1-.8 1.7-1.7 1.7-1.1 0-1.4.4-1.6.5-.5.6-.5 1.9-.4 2.3.5 2.9 0 5.1-1.4 6.5-1.4 1.5-3.2 1.7-4.1 1.7z"/><path class="st0" d="M147.8 47.5c-.4 0-.9-.2-1.2-.5-12.3-12.3-.2-26-.1-26.1.6-.7 1.7-.8 2.4-.1.7.6.8 1.7.1 2.4-.4.5-10 11.4-.1 21.4.7.7.7 1.8 0 2.4-.2.3-.6.5-1.1.5zm5.9 0c-.4 0-.9-.2-1.2-.5-.7-.7-.7-1.8 0-2.4 10-10 .4-20.9-.1-21.4-.6-.7-.6-1.8.1-2.4s1.8-.6 2.4.1c.1.1 12.3 13.8-.1 26.1-.2.3-.7.5-1.1.5z"/><path d="M83.2 42.9c-.3 0-.7-.1-.9-.3l-11.1-7.3c-.5-.3-.8-.9-.8-1.4s.3-1.1.8-1.4l11.1-7.3c.8-.5 1.9-.3 2.4.5s.3 1.9-.5 2.4L75.3 34l8.9 5.9c.8.5 1 1.6.5 2.4-.4.3-.9.6-1.5.6zm26.5 0c-.6 0-1.1-.3-1.4-.8-.5-.8-.3-1.9.5-2.4l8.9-5.9-8.9-5.9c-.8-.5-1-1.6-.5-2.4.5-.8 1.6-1 2.4-.5l11.1 7.3c.5.3.8.9.8 1.4s-.3 1.1-.8 1.4l-11.1 7.3c-.3.4-.7.5-1 .5zm-21 .1c-.2 0-.5 0-.7-.1-.9-.4-1.3-1.4-.9-2.3l6.3-14.3c.4-.9 1.4-1.3 2.3-.9.9.4 1.3 1.4.9 2.3L90.3 42c-.3.6-1 1-1.6 1z"/><path class="st0" d="M103.9 43h-8.8c-1 0-1.7-.8-1.7-1.7 0-1 .8-1.7 1.7-1.7h8.8c1 0 1.7.8 1.7 1.7s-.8 1.7-1.7 1.7z"/></svg>