<?xml version="1.0" encoding="UTF-8"?>
<svg xmlns="http://www.w3.org/2000/svg" id="Capa_2" viewBox="0 0 223.09 53.89">
  <defs>
    <style>.cls-1,.cls-2{fill:#8592a1;}.cls-3,.cls-4{fill:#c4ce40;}.cls-4,.cls-2{fill-rule:evenodd;}</style>
  </defs>
  <g id="Capa_1-2">
    <g>
      <g>
        <path class="cls-2" d="M60.05,18.97c-4-2.51-8.01-5.02-12.01-7.53-4-2.51-8.01-5.02-12.02-7.52V0c4.01,2.7,8.01,5.41,12.02,8.12,4,2.7,8.01,5.42,12.01,8.12v2.72Z"></path>
        <path class="cls-2" d="M60.05,23.86c-4-2.15-8.01-4.31-12.01-6.45-4-2.15-8.01-4.3-12.02-6.45v-3.91c4.01,2.35,8.01,4.7,12.02,7.04,4.01,2.35,8.01,4.7,12.01,7.05v2.72Z"></path>
        <path class="cls-2" d="M60.05,28.88c-4-1.78-8.01-3.56-12.01-5.34s-8.01-3.56-12.02-5.35v-3.92c4.01,1.98,8.01,3.96,12.02,5.94,4,1.98,8.01,3.96,12.01,5.94v2.72Z"></path>
        <path class="cls-2" d="M60.05,33.77c-4-1.42-8.01-2.85-12.01-4.27-4-1.42-8.01-2.85-12.02-4.27v-3.91c4.01,1.62,8.01,3.25,12.02,4.87s8.01,3.25,12.01,4.87v2.71Z"></path>
        <path class="cls-2" d="M60.05,38.39c-4-1.09-8.01-2.17-12.01-3.26-4-1.09-8.01-2.17-12.02-3.26v-3.91c4.01,1.28,8.01,2.57,12.02,3.85s8.01,2.57,12.01,3.85v2.72Z"></path>
        <path class="cls-2" d="M60.05,43.29c-4-.73-8.01-1.46-12.01-2.18-4-.72-8.01-1.45-12.02-2.18v-3.92c4.01,.93,8.01,1.85,12.02,2.78,4,.92,8.01,1.85,12.01,2.78v2.72Z"></path>
        <path class="cls-2" d="M60.05,48.31c-4-.36-8.01-.72-12.01-1.07-4-.36-8.01-.71-12.02-1.07v-3.91c4.01,.56,8.01,1.12,12.02,1.68,4,.56,8.01,1.11,12.01,1.67v2.71Z"></path>
        <path class="cls-2" d="M60.05,53.2h-24.03v-3.91c4.01,.2,8.01,.4,12.02,.6s8.01,.39,12.01,.6v2.71Z"></path>
        <path class="cls-2" d="M25.68,21.96l-4.36-1.56v-2.61c1.45,.56,2.91,1.12,4.36,1.68v2.48Zm0,4.46c-1.45-.45-2.91-.89-4.36-1.34v-2.6l4.36,1.46v2.48Zm0,4.59c-1.45-.37-2.91-.74-4.36-1.11v-2.61c1.45,.41,2.91,.82,4.36,1.23v2.48Zm0,4.46c-1.45-.3-2.91-.59-4.36-.89v-2.6l4.36,1.01v2.48Zm0,4.22c-1.45-.23-2.91-.45-4.36-.68v-2.6c1.45,.27,2.91,.53,4.36,.8v2.48Zm0,4.46l-4.36-.45v-2.61c1.45,.19,2.91,.39,4.36,.58v2.48Zm0,4.59c-1.45-.07-2.91-.15-4.36-.23v-2.6c1.45,.11,2.91,.23,4.36,.35v2.48Zm0,4.46h-4.36v-2.6c1.45,.04,2.91,.08,4.36,.13v2.48Z"></path>
      </g>
      <g>
        <path class="cls-4" d="M25.68,15.52c1.73-1.94,3.45-3.87,5.18-5.8,1.72-1.93,3.45-3.87,5.18-5.8V0c-1.73,2.09-3.45,4.18-5.18,6.26s-3.45,4.17-5.18,6.26v3Z"></path>
        <path class="cls-4" d="M25.68,20.9c1.73-1.66,3.45-3.32,5.18-4.97,1.72-1.65,3.45-3.31,5.18-4.97v-3.91c-1.73,1.81-3.45,3.63-5.18,5.44-1.72,1.81-3.45,3.62-5.18,5.43v2.99Z"></path>
        <path class="cls-4" d="M25.68,26.44c1.73-1.37,3.45-2.75,5.18-4.12s3.45-2.75,5.18-4.12v-3.92c-1.73,1.53-3.45,3.06-5.18,4.59-1.72,1.52-3.45,3.05-5.18,4.58v2.99Z"></path>
        <path class="cls-4" d="M25.68,31.82c1.73-1.1,3.45-2.2,5.18-3.29,1.72-1.1,3.45-2.19,5.18-3.29v-3.91c-1.73,1.25-3.45,2.51-5.18,3.76-1.72,1.25-3.45,2.5-5.18,3.75v2.99Z"></path>
        <path class="cls-4" d="M25.68,36.9c1.73-.84,3.45-1.68,5.18-2.51s3.45-1.67,5.18-2.51v-3.91c-1.73,.99-3.45,1.98-5.18,2.97s-3.45,1.97-5.18,2.97v2.99Z"></path>
        <path class="cls-4" d="M25.68,42.29c1.73-.56,3.45-1.12,5.18-1.68,1.72-.56,3.45-1.12,5.18-1.68v-3.92c-1.73,.72-3.45,1.43-5.18,2.14-1.72,.71-3.45,1.43-5.18,2.14v2.99Z"></path>
        <path class="cls-4" d="M25.68,47.82c1.73-.28,3.45-.55,5.18-.83s3.45-.55,5.18-.83v-3.91c-1.73,.43-3.45,.87-5.18,1.29-1.72,.43-3.45,.86-5.18,1.29v2.99Z"></path>
        <path class="cls-4" d="M25.68,53.2h10.35v-3.91c-1.73,.16-3.45,.31-5.18,.46-1.72,.15-3.45,.31-5.18,.46v2.98Z"></path>
        <path class="cls-4" d="M14.42,28.13c1.15-1.29,2.3-2.57,3.44-3.86,1.15-1.28,2.3-2.57,3.45-3.86v-2.61c-1.15,1.39-2.3,2.78-3.45,4.17-1.15,1.39-2.3,2.78-3.44,4.17v1.99Z"></path>
        <path class="cls-4" d="M14.42,31.71c1.15-1.11,2.3-2.21,3.44-3.31,1.15-1.1,2.3-2.2,3.45-3.31v-2.6c-1.15,1.21-2.3,2.41-3.45,3.62-1.15,1.2-2.3,2.41-3.44,3.61v1.99Z"></path>
        <path class="cls-4" d="M14.42,35.39c1.15-.91,2.3-1.83,3.44-2.74,1.15-.91,2.3-1.83,3.45-2.74v-2.61c-1.15,1.02-2.3,2.04-3.45,3.05-1.15,1.01-2.3,2.03-3.44,3.05v1.99Z"></path>
        <path class="cls-4" d="M14.42,38.97c1.15-.73,2.3-1.46,3.44-2.19,1.15-.73,2.3-1.46,3.45-2.19v-2.6c-1.15,.83-2.3,1.67-3.45,2.5-1.15,.83-2.3,1.66-3.44,2.5v1.99Z"></path>
        <path class="cls-4" d="M14.42,42.36c1.15-.56,2.3-1.11,3.44-1.67,1.15-.56,2.3-1.11,3.45-1.67v-2.6c-1.15,.66-2.3,1.32-3.45,1.98-1.15,.66-2.3,1.31-3.44,1.98v1.99Z"></path>
        <path class="cls-4" d="M14.42,45.94c1.15-.37,2.3-.75,3.44-1.12,1.15-.37,2.3-.74,3.45-1.12v-2.61c-1.15,.48-2.3,.95-3.45,1.43-1.15,.47-2.3,.95-3.44,1.42v1.99Z"></path>
        <path class="cls-4" d="M14.42,49.62c1.15-.18,2.3-.37,3.44-.55,1.15-.18,2.3-.37,3.45-.55v-2.6c-1.15,.29-2.3,.57-3.45,.86-1.15,.28-2.3,.57-3.44,.86v1.99Z"></path>
        <path class="cls-4" d="M14.42,53.2h6.89v-2.6c-1.15,.1-2.3,.2-3.45,.31-1.15,.1-2.3,.2-3.44,.31v1.99Z"></path>
      </g>
      <path class="cls-1" d="M74.14,53.89H.34c-.19,0-.34-.15-.34-.34s.15-.34,.34-.34H74.14c.19,0,.34,.15,.34,.34s-.15,.34-.34,.34Z"></path>
      <g>
        <g>
          <line class="cls-1" x1="59.59" y1="16.05" x2="69.05" y2="53.55"></line>
          <path class="cls-1" d="M69.05,53.66c-.05,0-.1-.03-.11-.09l-9.47-37.5c-.02-.06,.02-.12,.08-.14,.06-.02,.12,.02,.14,.08l9.47,37.5c.02,.06-.02,.12-.08,.14,0,0-.02,0-.03,0Z"></path>
        </g>
        <g>
          <path class="cls-1" d="M66.76,26.3c-.03-.22-.16-.41-.32-.54-.17-.13-.53-.25-.83-.46-.22-.15-.18-.34-.13-.47h0s.02-.04,.04-.05c.03-.02,.05-.04,.07-.06,.02-.02,.04-.04,.06-.07,.02-.03,.03-.06,.04-.1,0,0,0-.02,.01-.02l.03-.04c-.03-.06-.06-.12-.09-.19,0,0,0-.02,0-.03,0-.01,0-.03,0-.04,0-.02-.01-.04,.01-.06h0c.03-.05,.02-.1-.03-.13-.01,0-.02-.02-.02-.03,0,0,0-.01,0-.02-.01,0-.01-.02-.01-.03,0-.01,0-.02,0-.04,0-.02-.02-.05-.02-.07,0-.04-.02-.07-.04-.1,0,0-.02-.02-.02-.03-.04-.06-.09-.11-.14-.15-.07-.05-.15-.09-.24-.12-.04,0-.07-.02-.11-.03-.08,0-.16-.02-.24-.01-.09,0-.17,0-.26,.03-.04,.01-.09,.03-.13,.04-.05,.02-.1,.04-.15,.07-.06,.03-.11,.06-.16,.1-.03,.03-.06,.05-.09,.08-.03,.02-.05,.05-.07,.07-.03,.03-.05,.06-.07,.09-.02,.03-.03,.05-.04,.08-.02,.04-.04,.08-.05,.11-.02,.04-.02,.08-.04,.12-.02,.05-.02,.1-.03,.16,0,.02,0,.05-.02,.07-.02,.03,0,.06,.02,.08,0,0,.01,0,.01,.02,.01,.02,.02,.03,.04,.04,.01,0,.01,.01,0,.02,0,0,0,.02,0,.02,.01,.03,.01,.06,.02,.09,0,.03,0,.07,0,.11,0,.06,.02,.11,.06,.15,0,0,.01,.02,.02,.03,.01,.03,.01,.06,0,.09,0,.05-.01,.11-.01,.16,0,.03,0,.07,0,.1,0,.03,.01,.06,.04,.07,.02,0,.04,.02,.06,0,.03-.01,.05,0,.06,.02,0,.02,.13,.04,.14,.05,.06,.12,.12,.22,.12,.26-.06,.17-.09,.29-.29,.32-.51,.09-.67-.54-.7-.62-.05-.08-.18-.57-.2-.32-.09-.17-.22-.09-.33-.1-.1-.02-.21-.09-.32-.09-.13,.05-.17,.25-.3,.34,0,0-.02-.01-.03-.02,0,0-.01,0-.01,0,0,0-.01,0-.02-.01-.02,0-.05,0-.07,0-.02,0-.03,0-.04-.02-.01-.01-.02-.03-.04-.04,.01,.02,.03,.04,.05,.06,0,0-.01,0-.01,0-.03-.04-.07-.08-.1-.11-.04-.05-.08-.09-.13-.14-.04-.04-.07-.08-.1-.12,0,0-.01,0-.02,0-.04,0-.07,0-.11,0-.05,0-.09,0-.14,.01-.01,0-.02,0-.02,.02-.02,.05-.03,.1-.05,.14,0,0,0,.02,0,.02,.02,0,.05,0,.06-.02,.02-.02,.03-.05,.05-.07,0-.01,.02-.02,.03-.02,.04,0,.07,0,.11,0,.02,0,.03,0,.04,.02,.03,.05,.05,.09,.08,.13,.02,.04,.02,.06-.02,.09-.02,0-.03,.02-.04,.03,0,.01-.01,.02-.03,.03-.03,.02-.06,.04-.09,.06-.02,.02-.05,.02-.07,0-.01,0-.02,0-.04,0-.04,0-.07,0-.11,0-.02,0-.03,0-.04,.02,0,0-.01,0-.02,0-.07,0-.14,0-.21,.02-.01,0-.02,0-.03,.01,0-.01,0-.01-.01,0-.03,0-.06,0-.09,0-.01,0-.01,0-.02-.02,0-.02-.01-.03-.03-.04-.03,0-.06,0-.08,0,0,0-.01,0-.02,.01,0,.02-.02,.03-.04,.03-.03,0-.05-.02-.04-.05h0c0-.05,0-.09,0-.13,0-.02,0-.03,.02-.03,.03,0,.07,0,.1,0,.02,0,.05,0,.07,0,.02,0,.03-.02,.01-.04,0-.01-.02-.02-.02-.03,0-.04-.02-.08,0-.12h0s0-.05-.03-.04c-.04,0-.07,0-.11,.01-.04,.01-.08,.02-.12,.04-.01,0-.03,.01-.04,.01-.05,0-.1,.01-.15,.01-.02,0-.04,0-.07,0-.02,0-.06,.05-.06,.07h0s.04,.06,.07,.05c.04,0,.07,0,.11,0,.04,0,.05,0,.05,.04,0,.04,0,.09,0,.13,0,0,0,.01,0,.02,0,0-.01,0-.02,0-.03-.01-.05-.03-.08-.05-.03-.02-.06-.03-.09-.05-.03-.01-.05-.03-.08-.04-.02,0-.03-.03-.06-.03-.01,0-.03-.01-.04,0-.02,0-.03,.02-.02,.04,0,.02,.01,.03,.03,.04,.02,0,.03,.01,.04,.03-.02,0-.03-.02-.05-.02,.02,.01,.03,.03,.05,.04,.02,.01,.04,.03,.06,.05,.01,.02,.03,.04,.06,.05,.02,.01,.05,.02,.07,.03,.02,0,.03,.01,.05,.03,.01,.01,.02,.02,.04,.03,.03,.01,.05,.04,.05,.07,0,.04,0,.08-.03,.11-.01,0-.02,.02-.03,.03,0,0-.01,.01,0,.02,0,0,0,.02,0,.02-.04,.02-.07,.05-.11,.07-.02,.01-.05,.03-.06,.06,0,0,0,0,0,.01l-.05,.04s-.03,.03-.04,.04c0,.02-.01,.03,0,.04,.01,.01,.02,.02,.03,.03,0,0,.03,0,.03,0,.01,0,0-.02,0-.02,0,0,0,0,0,0,0,0,0,0,.01,0,0,.02,.02,.01,.03,0,.09-.06,.18-.13,.27-.19,.02-.01,.02-.02,0-.03h0s0,0,.01,0c.04,0,.07,0,.11-.01,.02,0,.02,0,.02-.02,0-.02,0-.03,.01-.04h0s0,.05,.05,.05c.01,0,.02,0,.02,.01,0,0,.01,.01,.02,.01,.04,0,.09,0,.13-.03,.02-.02,.05-.03,.08-.03,.02,0,.03,0,.03-.03,0,0,0-.02,.02,0,0,0,0,0,.01,0t.03,.03s0,.01,.01,.02c.02,0,.02,.01,.01,.03,0,.01-.02,.01-.03,.02-.04,.03-.08,.05-.12,.07-.06,.03-.13,.06-.19,.09-.03,.02-.06,.04-.07,.08,0,.03,0,.07,0,.1,0,.06,.01,.12,.02,.18,0,0,0,0,0,0v-.15c0,.08,0,.17,0,.25,0-.01,0-.02,0-.04v.02s0,.04,0,.06c0,.03,0,.06,.01,.08,0,.08,.02,.15,.03,.23,0,.02,.01,.05,.02,.07,.03,.05,.08,.07,.13,.08,.08,.02,.17,.03,.26,.04,.03,0,.07,0,.1,.01,.04,0,.07,0,.1-.04,.05-.06,.1-.11,.15-.17,.02-.03,.05-.05,.09-.05,.02,0,.05,0,.07,0,0,0,0,0,.01,0-.03,0-.06-.02-.09,0,.02-.01,.05-.02,.07-.02,.03,0,.05,0,.07,.02,.03,.03,.06,.04,.1,.03h0s0,0,.01,0c0,0,0,0,0,0-.03,0-.05,0-.08,0-.02,0-.04,0-.06-.02,.02,.01,.03,.02,.05,.03,.03,.01,.06,0,.09,0,0,0,.01,0,.02,0,.01,.05,.03,.1,.05,.15,.01,.04,.01,.04,.05,.03,.01,0,.02,0,.02,.01,0,.03,0,.05,.02,.08,0,.02,.01,.05,.03,.07,0,.01,.02,.02,.03,.01,.03,0,.06-.02,.09-.03,0,0,.02,0,.02-.01,0,0,.01-.02,0-.03,0-.01,0-.03-.01-.04,0-.03-.02-.05-.03-.08-.02-.02,0-.04,.01-.04,0,0,.01,0,.02,0,0,0,0,0,0,0,0,0,0-.01,.01-.01l.05-.02s.01,.02,0,.03c0,0,0,0,0,0,0,0,0,0,.01-.01,0,.03,0,.06,0,.1,0,.39,.23,.76,.32,1.13,.13,.21,.21,.24,.22,.51-.07,.33-.54,.26-.76,.43-.08,.04-.15,.13-.21,.2-.17,.24-.17,.25-.39,.37,.03,.06,0,.1-.06,.14-.16,.12-.28,.29-.43,.41-.21,.05-.31,.22-.43,.37-.35,.23-.38,.45-.58,.79-.2,.25-.28,.55-.45,.82-.1,.19-.2,.38-.3,.57-.2,.16-.25,.2-.35,.45-.08,.15-.1,.34-.3,.4-.07,.02-.16,.07-.19,.13-.97,1.18-1.43-.02-1.87,.6-.17,.19,.4,.56,.51,.71,.18,.12,.38,.35,.62,.29,.13-.02,.24,.05,.32,.12,.2,.17,.87,.55,.98,.14,.04-.11,.13-.24,.24-.12,.1,.1,.21,.14,.33,.18,.35,.1,.72,.38,1.1,.27,.25-.09,.88,.08,.85-.33-.04-.4-.1-.84,.04-1.23,.05-.08,.1-.16,.01-.25,.02-.56,.19-1.12,.25-1.68,.06-.49-.26-.74,.23-.71,.67-.08,1.31-.34,1.91-.63,.03-.02,.07-.03,.13-.05l1.53-1.67c.14-.2,.29-.2,.38-.47,.06-.13,.14-.26,.23-.42,.05,.07,.36-.02,.34-.39,.03-.14,.1-.27,.15-.4,.06-.12,.19-.19,.06-.33l.14-1Zm-5.16,.25s-.03,.02-.04,.02c-.04,0-.07,.03-.1,.04,0,0-.02,0-.02,.02,0,.01,.01,.02,.03,.03,.01,0,.02,0,.03,0-.03,.01-.05,.04-.07,.06-.04,.05-.08,.09-.12,.14-.03,.04-.07,.05-.11,.05-.06,0-.11-.01-.17-.02-.03,0-.07,0-.1-.01-.05,0-.1-.02-.14-.03-.03-.01-.05-.03-.07-.06,0-.02,0-.04-.01-.07,0-.05-.01-.1-.02-.15,0-.03-.01-.06-.01-.09,0-.06-.01-.11-.02-.17,0-.06-.01-.12-.02-.19,0-.03,0-.07,0-.1,0-.04,.02-.06,.05-.08,.02-.01,.05-.02,.08-.03,.02,0,.05-.01,.07-.02,.03-.02,.05-.03,.08-.04,.01,0,.03-.01,.05-.02,.02,0,.04-.02,.06-.04,0-.01,.02-.02,.03-.03,0,0,.01-.01,.01-.02,0,0,0-.01,.01-.01,0,0,.02,0,.03,0,.02,0,.05,0,.07-.02h0s0,0,0,0c-.02,.02-.02,.05-.04,.07h0s0,.03-.02,.04c-.02,0-.02,.02-.02,.04-.01,.09-.02,.18-.02,.27,0,.04,0,.09,0,.13,0,.09,0,.18,.02,.27,0,.05-.02,.08-.06,.11-.02,.01-.04,.02-.06,.03-.01,0-.03,.01-.02,.03,0,.02,.02,.02,.03,.02,.05,0,.1-.01,.13-.05,.02-.02,.04-.04,.05-.06,.01-.01,.03-.01,.04-.02,.01,0,.03,0,.04,0,.01,0,.02-.01,.03-.02,0,0,0-.01,.02-.02,.02,0,.02-.02,.02-.03-.01-.08-.02-.15-.02-.23,0-.06,0-.12,0-.17,0-.04,0-.07,0-.11,0-.04,0-.08,.01-.12,0-.01,0-.03,0-.04,0,0,0-.01,0-.02,0-.01,0-.03,.01-.04,0,0,0,0,0,0-.02,0-.04,0-.06,0-.03,0-.05,0-.08,0,0-.01,.02-.01,.03,0,.04,0,.07,.01,.11,.02,.01,0,.02,0,.03-.01,.01-.02,.05-.02,.06,0,.01,.01,.03,.03,.05,.04,0,0,0,0,0,.01,0,0,0,0-.01,0l-.03-.03s-.02-.01-.03,0c-.01,0-.01,.01-.01,.02,0,.02,0,.04,.01,.06,0,.03,.02,.06,.02,.1,0,.03,0,.05-.01,.08-.01,.03,0,.06,0,.09,.01,.03,.02,.06,.02,.09,0,.01,.01,.02,.03,.02,.03,0,.07,0,.1,0,.02,0,.04,.02,.06,.03,.01,.02,.01,.04,0,.06-.02,.02-.01,.03,0,.05,.02,.05,.04,.11,.06,.16,0,.01,0,.03-.01,.04Zm.45,.03s-.03-.05-.05-.06c-.04-.03-.05-.07-.08-.1-.02-.02-.03-.05-.05-.07-.02-.02,0-.05,.02-.06,0,0,.01,0,.02,0,.02,.03,.03,.05,.05,.07,.02,.02,.03,.05,.04,.07,.01,.02,.01,.03,.02,.05,.01,.03,.02,.06,.03,.09h0Zm.15,0s-.01,.02-.01,.03c0-.01,0-.02-.02-.04-.02-.04-.04-.08-.06-.12-.02-.04-.05-.08-.08-.11,0-.01-.02-.02-.03-.03-.01-.02-.02-.03-.04-.05-.02-.02-.03-.04-.04-.07-.02-.05-.02-.1,0-.14h.03c.15-.09,.11-.12,.18,.07,.02,.23,.24,.24,.07,.44Zm-1.98,7.96c-.11,.13-.17,.3-.32,.38-.17,.25-.58-.11-.81-.17,.44-1.01,.75-.1,.92-.68,.03-.11,.08-.2,.19-.26,0,.42,.42,.39,.02,.74Zm.22-1.18c-.03-.21,.08-.37,.18-.55,.07,.24-.08,.38-.18,.55Z"></path>
          <path class="cls-1" d="M58.31,22.63c.08,.05,.17,.06,.27,.04,.02,0,.05-.01,.07,0,.01,0,.02,0,.04,0,.02,0,.04,0,.06,0,.02,0,.03,0,.05,0l.25,.04s.02,0,.03,.02c.06,.1,.12,.19,.2,.28,.02,.03,.02,.03,0,.06-.02,.03-.02,.04,0,.07,.02,.02,.03,.04,.05,.06,.05,.05,.1,.1,.17,.12,.05,.01,.1,.03,.15,.04,.03,0,.06,.02,.07,.06,.01,.04,.04,.07,.07,.1,.01,0,.03,0,.04,0,.02-.02,.05-.04,.08-.06,.03-.02,.03-.04,.03-.07,0-.01,0-.03,0-.04,0,0-.01-.01,0-.02,0,0,.01,0,.02,0,.12,.03,.25,.07,.37,.1,.03,0,.04,.02,.06,.04,.03,.04,.05,.08,.08,.11,.05,.06,.1,.1,.17,.1,.03,0,.05,.01,.06,.04,.02,.05,.07,.07,.11,.05,.05-.02,.09-.05,.14-.08,.03-.02,.04-.04,.03-.08h0s0-.04,.02-.05c.06-.03,.13-.07,.19-.1,.02,0,.02,0,.03,0,.04,.07,.07,.14,.09,.21,0,.01,0,.03,0,.04-.03,.07-.05,.15-.02,.23,0,0,.02,.02,0,.03,0,0,0,0,0,.01,0,0,0,.02,0,.03,.03,.06,.05,.13,.08,.19,.03,.07,.05,.13,.08,.2,0,.01,.01,.02,.03,.02,.01,0,.02,0,.02,.02,.02,.04,.05,.08,.1,.1,.04,.02,.09,.02,.14,.02,.14-.02,.26-.16,.2-.32-.03-.08-.06-.16-.09-.23-.05-.12-.1-.25-.15-.37-.02-.05-.05-.08-.1-.09,0,0-.02,0-.02-.01-.03-.04-.06-.08-.09-.13,0-.01,0-.02,0-.03,.03-.02,.07-.04,.1-.06,.02-.02,.03-.04,.02-.06,0-.01,0-.03,0-.04,0-.02,0-.04,.01-.06,.03-.05,.04-.1,.04-.15,0-.05,0-.1,0-.14,.01-.26,0-.52-.06-.77-.03-.15-.07-.3-.13-.45-.04-.11-.09-.22-.15-.32,0-.01,0-.02,0-.03,.02-.02,.02-.03,0-.06v-.02c-.1-.16-.24-.24-.42-.25l-.44-.08s-.05-.02-.07-.02c-.04,0-.08,0-.13,0-.16,0-.31,0-.47,.03-.06,.01-.13,.03-.19,.03-.03,0-.06,.01-.09,.03-.02,0-.04,.02-.03,.03,0,.03-.02,.05-.03,.07,0,.01,0,.02-.02,.03-.06,.05-.13,.09-.19,.14-.02,.02-.04,.04-.05,.07-.02,.06-.04,.13-.05,.2,0,.01,0,.02-.02,.03-.05,.03-.11,.05-.16,.09-.07,.04-.1,.11-.11,.19,0,.04,0,.08,0,.11,0,.01,0,.02-.01,.03-.05,.04-.1,.08-.15,.11-.12,.09-.23,.18-.35,.27-.07,.06-.09,.17-.04,.26,.01,.02,.03,.04,.05,.05Zm3.03,1.23s0-.01,0-.02c0-.02,.01-.04,.04-.04,.03,0,.05-.02,.07-.04,.02-.01,.04-.03,.06-.05,.02-.02,.03-.02,.04,.01,.07,.17,.14,.34,.21,.51,.01,.03,.03,.07,.02,.1,0,.04-.02,.07-.06,.08-.04,.02-.09,.03-.14,0-.02,0-.02-.02-.03-.04,.02,.01,.02,0,.02,0,0,0,0-.02,0-.02-.04-.11-.09-.23-.13-.34,0,0,0-.02-.02-.02-.02,0-.03-.02-.03-.03-.01-.02-.02-.05-.03-.08,0-.01-.01-.02-.02-.02-.01,0-.01,0,0-.02Zm-1.97-2.63s.02-.03,.04-.02c.02,.01,.04,.02,.05,.03,.01,0,.02,0,.03,0,.12-.03,.23-.04,.35-.05,.07,0,.15,0,.22,0,.08,0,.16,0,.23,0,0,0,.02,0,.02,0-.01,0-.03,.01-.04,.01-.08,.01-.15,.02-.23,.04-.07,.01-.14,.02-.21,.03-.07,.01-.14,.02-.21,.03-.09,.01-.18,.03-.26,.07,0,0-.02,0-.02,0,0-.05,0-.1,.02-.15Z"></path>
        </g>
      </g>
      <g>
        <g>
          <line class="cls-1" x1="9" y1="36.09" x2="6.64" y2="53.54"></line>
          <path class="cls-1" d="M6.64,53.6h0s-.06-.04-.05-.07l2.37-17.45s.03-.05,.06-.05h0s.06,.04,.05,.07l-2.37,17.45s-.03,.05-.06,.05Z"></path>
        </g>
        <g>
          <path class="cls-1" d="M13.08,29.17h0Z"></path>
          <path class="cls-1" d="M14.87,36.21s-.04-.08-.08-.09c-.12-.03-.24,.04-.27,.16-.02,.1-.04,.19-.04,.29,0,.07-.03,.14-.08,.2-.08,.08-.19,.13-.29,.18-.04,.02-.07,0-.08-.04-.01-.05-.03-.1-.05-.15-.04-.09-.11-.14-.21-.14-.1,0-.2,.03-.24,.14-.02,.04-.03,.04-.06,.02-.23-.14-.48-.25-.72-.37-.18-.08-.36-.14-.53-.25-.13-.08-.27-.15-.32-.31,0-.01-.02-.03-.03-.03-.05,0-.06-.03-.06-.07,0-.02,0-.04-.02-.05-.06-.03-.07-.1-.1-.15-.01-.03-.02-.06-.05-.07-.15-.08-.26-.25-.46-.25-.02,0-.04-.02-.05-.03-.14-.11-.23-.28-.33-.42-.07-.09-.14-.17-.2-.27-.02-.04-.07-.06-.05-.12,0-.02-.01-.04-.03-.06-.03-.02-.06-.05-.09-.07-.07-.06-.06-.12,.02-.16,.03-.01,.05-.02,.06-.05,.02-.07,.04-.13,.01-.2,0-.01-.01-.03,0-.04,.01-.01,.03,0,.04,0,.13,.07,.26,.13,.38,.22,.07,.06,.14,.06,.21,0,0,0,.02-.02,.03-.02,.08,0,.15-.03,.22-.03,.05,0,.07,.01,.07,.07,0,.06,0,.12,.1,.15,.13,.06,.26,.04,.39,.03,.09,0,.13-.05,.14-.14,0-.03,.01-.05,.04-.06,.02,0,.04-.02,.05-.03,.07-.11,.19-.17,.25-.28,.02-.03,.03-.07,.05-.09,.14-.16,.26-.32,.38-.49,.2-.25,.39-.5,.58-.75,.09-.11,.19-.22,.23-.36,.01-.03,.02-.06-.02-.07-.07-.02-.11,0-.13,.06,0,.02-.02,.05-.03,.07-.02,.06-.03,.06-.08,.02-.14-.11-.29-.23-.43-.34-.2-.15-.39-.31-.59-.46-.03-.03-.06-.06-.08-.1,0-.01-.02-.04,0-.04,.08,0,.08-.06,.1-.11,.04-.17,.05-.35,.08-.52,0-.06,.03-.1,.08-.13h.01c.19-.03,.68-.09,.84-.09,.08,0,.12,.26,.2,.26h.13s0,.02,.02,.02h.4s.01,0,.02,0h.04c.25,0,.46-.02,.46-.05h-.01v-.02h-.04l-.02-.02h0s.07-.03,.07-.04h-.01v-.02h-.05l-.02-.02s.01,0,.02-.01c.04,0,.06-.02,.06-.03h-.01v-.02h-.04l-.02-.02s.01,0,.02-.01c.04,0,.06-.02,.06-.03h0s-.03-.02-.07-.03c0,0,.01,0,.01-.01h0s.06-.02,.06-.03h0s-.03-.02-.07-.03c0,0,0,0,0-.01h0s.06-.02,.06-.03h0v-.02h-.03l-.03-.02h0s.06-.03,.06-.04h-.01v-.02h-.05v-.02h0s.07-.03,.07-.04h-.01v-.02h-.05v-.02h0s.07-.03,.07-.04c0-.01-.02-.02-.06-.03h0s.07-.03,.07-.04h-.01v-.02h-.05v-.02h-.01s.08-.03,.08-.04h-.01v-.02h-.04l-.02-.02h0c-.07-.02-.19-.03-.33-.03h-.1s0-.02-.02-.02h-.4s-.02,0-.02,.02h-.13c-.06,0-.11,.16-.16,.22h-.02v.02h-.01s0,0-.01,0h-.16c-.14-.03-.34-.05-.49-.08,.02-.03,.04-.07,.03-.11-.01-.09,.02-.17,.06-.25,.06-.12,.25-.46,.19-.36,.04-.09,1.29-2.65,1.35-2.77,.06-.13,.16-.3,.16-.3,0,0-.08-.14-.22,.07-.14,.21-.68,1.38-.44,.9,.24-.48-1.05,2.14-1.2,2.39-.03,.05-.05,.1-.07,.14-.06,.13-.16,.19-.3,.18-.02,0-.04,0-.06,.03-.08,.13-.2,.24-.3,.35-.05,.06-.12,.1-.18,.14-.15,.11-.28,.24-.45,.32-.12,.06-.24,.14-.36,.22-.13,.09-.26,.15-.42,.13-.11-.02-.21-.03-.32-.03-.1,0-.22-.02-.32-.06-.05-.02-.1-.02-.14,0-.06,.02-.09,0-.12-.04-.03-.04-.07-.09-.13-.08-.07,.01-.12-.03-.16-.07-.04-.04,0-.09,.02-.14,.07-.12,.14-.25,.2-.37,.04-.08,.07-.16,.07-.25,0-.07,0-.15,.04-.21,.04-.06,.04-.12,.04-.18,0-.02,0-.05,0-.07,.05-.15-.02-.27-.1-.38-.08-.1-.16-.2-.21-.32-.01-.03-.04-.05-.07-.06-.05-.02-.11-.04-.17-.04-.14,0-.29,0-.43,.02-.11,.02-.21,.05-.29,.13-.05,.05-.1,.11-.15,.17-.04,.04-.06,.1-.06,.15,0,.05,0,.09-.01,.13-.02,.08-.04,.16-.05,.24,0,.04-.01,.08,.05,.06,.01,0,.03,0,.03,.01,.01,.05,.05,.09,.05,.14,0,.15-.02,.3-.03,.45,0,.06-.03,.08-.08,.08-.08,0-.15,.02-.23,0-.06,0-.1,.01-.1,.08,0,.06-.03,.12-.04,.18,0,.03-.02,.04-.05,.03-.09-.01-.17,0-.25,.02-.06,0-.11,.03-.15,.07-.07,.07-.12,.16-.17,.25-.04,.07-.07,.13-.08,.21-.02,.09-.06,.18-.08,.27-.02,.09-.05,.18-.08,.26-.05,.12-.1,.25-.17,.37-.03,.06-.06,.13-.07,.2-.02,.12-.06,.23-.11,.34-.05,.12-.07,.23-.01,.34,.03,.07,.08,.1,.16,.08,.07-.01,.14-.04,.2-.07,.04-.02,.07-.02,.08,.04,.01,.11,.08,.2,.14,.28,.07,.11,.1,.24,.09,.36-.01,.13,.01,.24,.07,.35,.07,.13,.12,.27,.11,.42,0,.03,0,.05,.01,.08,.04,.16,.08,.32,.11,.48,0,.02,0,.03-.02,.05-.04,.05-.09,.09-.11,.15-.04,.1-.06,.19-.08,.29,0,.05-.03,.06-.08,.05-.03,0-.07-.01-.1-.02-.04,0-.07,.01-.07,.06-.02,.31-.07,.61-.08,.92,0,.04-.01,.06-.04,.09-.04,.04-.05,.08-.02,.13,.02,.03,.03,.06,.02,.09-.04,.12-.03,.25-.03,.38,0,.07,0,.14-.02,.21-.08,.24-.09,.48-.07,.73,0,.1,.13,.19,.22,.15,.06-.02,.11-.02,.17,0,.04,0,.08,.02,.12,.02,.07-.01,.13,.03,.18,.06,.08,.04,.14,.05,.22,.04,.1-.02,.2-.04,.29-.06,.09-.02,.09-.02,.09,.08l.08,.03c0-.12,0-.12,.12-.15,.02,0,.05-.02,.07-.02,.05-.02,.07-.05,.07-.11-.01-.11-.02-.21-.04-.32-.01-.07,0-.12,.05-.17,.03-.03,.06-.06,.08-.1,.04-.06,.08-.12,.06-.2-.08-.29-.15-.58-.25-.87-.03-.08,0-.16-.02-.24,.04,.04,.05,.08,.06,.13,0,.01,.01,.03,.03,.02,.02,0,0-.02,0-.03-.01-.05-.03-.09-.04-.14-.02-.07,0-.09,.08-.09,.08,0,.16,.04,.24,0,.03-.01,.05,0,.05,.04,0,.08,0,.16,.01,.24,0,.07,0,.15,.02,.22,.02,.08,.04,.09,.12,.05q.08-.04,.06-.13s0-.03,0-.04c0-.01,0-.03,0-.04,.02,0,.02,0,.03,.02,.03,.05,.07,.09,.12,.13,.16,.15,.36,.14,.52-.01,.09-.09,.14-.2,.18-.31,.03-.1,.03-.1,.11-.04,.03,.02,.06,.04,.09,.05,.18,.1,.35,.22,.43,.42,.03,.07,.08,.13,.12,.2,.02,.04,.06,.07,.09,.1,.2,.14,.4,.28,.6,.41,.02,.02,.04,.03,.05,.07,.03,.12,.08,.19,.21,.2,.19,.02,.38,.07,.57,.11,.3,.06,.6,.12,.9,.15,.22,.02,.43,.04,.63,.13,.07,.03,.15,.05,.23,.04,.07,0,.14-.01,.22,.03,.04,.02,.1,.04,.14,0,.09-.06,.16-.15,.22-.24,.05-.08,.08-.17,.1-.27,.02-.11,.07-.21,.16-.28,.09-.08,.13-.18,.14-.29,.02-.28,0-.57-.07-.84Zm-6.62-.67s-.02-.01-.02-.02c0-.04-.03-.05-.06-.03-.03,.02-.05,0-.06-.02-.03-.04-.05-.08-.08-.12,0-.02-.01-.03,0-.05,.02-.01,.03,0,.05,0,.04,.03,.09,.04,.14,.05,.05,0,.04,.04,.03,.07,0,.03,0,.06,.01,.09,0,.01,0,.03-.01,.03Zm.47,.42s-.06,.02-.08,.03c-.11,0-.11,0-.11-.1,0-.03-.03-.08,.02-.1,.06-.02,.12-.03,.18-.02,0,0,.01,0,.02,.01,0,.06,0,.12-.02,.18Zm2.77-2.23c-.02,.08-.1,.12-.17,.08-.06-.03-.12-.05-.18-.05-.05,0-.09-.01-.13-.04-.11-.08-.24-.13-.35-.21-.05-.04-.1-.07-.14-.11-.03-.03-.05-.06-.04-.1,.02-.06,0-.1-.03-.15-.03-.04-.03-.07,0-.11,.09-.13,.18-.26,.27-.39,0-.01,.02-.03,.04-.03,.02,0,.02,.03,.02,.05-.01,.06,0,.12-.05,.18-.02,.02-.02,.05,0,.07,.02,.02,.04,.03,.06,.02,.04-.02,.07,0,.1,.03,.17,.14,.35,.27,.52,.41,.04,.03,.1,.06,.09,.14-.02,.06,0,.14-.02,.21Zm-2.33,2.01s.04,0,.06,0c.03,0,.09-.02,.1,.01,.01,.04-.05,.05-.08,.08-.04,.03-.09,.05-.13,.08-.02,0-.04,.02-.05,0-.03-.06,.03-.16,.1-.16Zm.72,.46c-.04,.09-.07,.18-.13,.26-.06,.08-.14,.13-.22,.14-.1,0-.16-.04-.22-.09-.09-.08-.16-.18-.23-.29-.03-.05-.03-.11-.03-.17,0-.02,.02-.04,.04-.05,.14-.04,.25-.14,.34-.24,.03-.03,.05-.04,.07,0,.07,.15,.19,.24,.33,.3,.06,.03,.07,.07,.04,.12Zm.03-3.16s-.06,.09-.1,.12c-.02,.02-.03,0-.04-.03-.03-.06-.04-.13-.05-.19,0-.02,0-.04,0-.05,.01,0,.02,0,.03,.01,.02,.03,.05,.02,.07,0,.02-.01,.04-.02,.06,0,.02,.02,0,.03,0,.05,0,0,0,.02,0,.02,0,.02,.05,.02,.03,.05Zm0-.18s-.05-.02-.07-.05c-.04-.05-.08-.1-.12-.15-.02-.02-.03-.05-.04-.08-.02-.09,.01-.15,.11-.16,.02,0,.04,.01,.05,.03,.06,.1,.11,.2,.17,.3,.02,.04-.03,.1-.09,.1Zm.11-.2c-.04-.08-.07-.16-.12-.24-.07-.13-.19-.12-.32-.08-.04,.01-.04,.02-.07,0,.05-.02,.09-.06,.14-.07,.04,0,.06-.02,.07-.06,.05-.14,.1-.28,.15-.43,.01-.04,.03-.07,.08-.05,.13,.05,.22,0,.28-.11,.02-.03,.05-.04,.09-.05,.15,0,.31-.02,.46-.02,.07,0,.15,0,.22,0,.05,0,.09-.02,.13-.05,.09-.08,.2-.12,.3-.2,.13-.1,.25-.22,.36-.34,.07-.08,.15-.17,.23-.25,0,0,.3-.2,.36-.23,.03-.01,.04,.01,.03,.04-.03,.09-.02,.19-.04,.29,0,.02,0,.05-.04,.05-.07,0-.1,.05-.13,.09-.04,.05-.08,.11-.12,.16-.02,.03-.04,.07-.09,.06-.02,0-.04,.02-.04,.03,.02,.09-.08,.13-.1,.21-.02,.05-.06,.07-.12,.07-.02,0-.05,0-.07,.01-.03,.02-.06,0-.08-.01-.04-.04-.08-.02-.11,0-.07,.06-.14,.12-.18,.21-.03,.05-.07,.07-.12,.04-.05-.03-.08-.01-.11,.02-.01,.02-.03,.03-.03,.05-.08,.17-.18,.32-.3,.45-.01,.01-.02,.03-.02,.05,0,.06-.03,.09-.1,.09-.2,0-.34,.11-.48,.23-.01,0-.02,.02-.03,.03-.05,.04-.06,.04-.08-.02Zm.28,.33s-.06-.04-.11-.05c-.06,0-.05-.08-.07-.12,0-.05,.02-.07,.05-.08,.11-.05,.21-.12,.29-.21,.04-.04,.11-.01,.15,.03,.07,.08,0,.12-.04,.17-.05,.08-.11,.16-.17,.24-.03,.05-.07,.05-.11,.01Z"></path>
        </g>
      </g>
    </g>
    <g>
      <path class="cls-1" d="M96.12,46.25h.94v7.51h-.94v-3.25h-3.63v3.25h-.94v-7.51h.94v3.39h3.63v-3.39Z"></path>
      <path class="cls-1" d="M101.69,53.76v-7.51h.94v7.51h-.94Z"></path>
      <path class="cls-1" d="M110.45,49.86h3.36v3.16c-.89,.58-2.06,.87-3.1,.87-2.24,0-3.97-1.63-3.97-3.85s1.8-3.92,3.96-3.92c1.04,0,2.13,.36,2.78,.92v1.01h-.08c-.67-.63-1.72-1.05-2.7-1.05-1.6,0-2.99,1.23-2.99,3.04,0,1.67,1.32,2.97,3.01,2.97,.92,0,1.75-.2,2.21-.53v-1.75h-2.48v-.88Z"></path>
      <path class="cls-1" d="M122.58,46.25h.94v7.51h-.94v-3.25h-3.63v3.25h-.94v-7.51h.94v3.39h3.63v-3.39Z"></path>
      <path class="cls-1" d="M127.87,50.39v-.79h2.86v.79h-2.86Z"></path>
      <path class="cls-1" d="M140.59,53.76h-.97l-.19-1.29c-.17-1.08-.88-1.61-1.79-1.61h-1.62v2.9h-.94v-7.51h2.55c1.78,0,2.82,.85,2.82,2.3,0,.94-.49,1.63-1.33,1.93,.53,.25,1.1,.88,1.27,1.97l.2,1.31Zm-2.96-3.78c1.21,0,1.86-.56,1.86-1.45s-.64-1.41-1.86-1.41h-1.61v2.85h1.61Z"></path>
      <path class="cls-1" d="M144.7,53.76v-7.51h.94v7.51h-.94Z"></path>
      <path class="cls-1" d="M149.88,53.16v-.93c.47,.48,1.22,.76,1.97,.78,.94,.01,1.58-.44,1.58-1.2,0-.54-.29-.87-.78-1.07l-1.34-.54c-1.01-.39-1.44-1.17-1.44-2.02,0-1.22,.97-2.06,2.37-2.06,.58,0,1.35,.17,1.75,.41v.95c-.43-.31-1.18-.47-1.73-.48-1.05-.02-1.44,.55-1.44,1.18,0,.43,.17,.89,.84,1.2l1.38,.56c.81,.29,1.35,.94,1.35,1.89,0,1.36-1.24,2.06-2.49,2.06-.79,0-1.62-.32-2.03-.73Z"></path>
      <path class="cls-1" d="M162.69,47.13h-3.31v2.51h2.63v.87h-2.63v2.37h3.31v.88h-4.26v-7.51h4.26v.88Z"></path>
      <path class="cls-1" d="M180.1,46.25h2.34v.15l-3.01,7.36h-1.02l-1.77-3.8-1.78,3.8h-1.02l-3.01-7.36v-.15h2.34l1.58,3.79,1.65-3.36h.49l1.65,3.36,1.57-3.79Z"></path>
      <path class="cls-1" d="M184.92,50.01c0-2.23,1.76-3.88,4.03-3.88s4.05,1.63,4.05,3.88-1.77,3.88-4.05,3.88-4.03-1.64-4.03-3.88Zm5.93,0c0-1.15-.82-1.98-1.9-1.98s-1.88,.85-1.88,1.98,.77,1.98,1.88,1.98,1.9-.85,1.9-1.98Z"></path>
      <path class="cls-1" d="M203.18,53.76h-2.17l-.19-1.2c-.14-.84-.65-1.23-1.32-1.23h-.83v2.44h-2.11v-7.51h3.63c1.79,0,2.93,1.12,2.93,2.6,0,.77-.44,1.46-1.1,1.86,.42,.28,.79,.8,.93,1.65l.24,1.41Zm-3.41-3.9c.77,0,1.19-.38,1.19-.94s-.42-.95-1.19-.95h-1.09v1.9h1.09Z"></path>
      <path class="cls-1" d="M213.71,53.57v.19h-2.53l-2.31-3.12v3.12h-2.11v-7.51h2.11v3.56c1.2-.39,2.25-2.24,2.25-3.56h2.15c0,1.41-.74,3.27-2.05,4.09l2.49,3.23Z"></path>
      <path class="cls-1" d="M216.8,53.31v-1.8c.56,.36,1.51,.63,2.24,.63,.5,.01,.87-.16,.87-.57,0-.26-.14-.43-.42-.54l-1.27-.53c-.97-.35-1.48-1.13-1.48-2.08,0-1.35,1.07-2.31,2.76-2.31,.74,0,1.62,.2,2.04,.46v1.79c-.48-.34-1.42-.54-1.98-.55-.61,0-.78,.27-.78,.57,0,.24,.14,.45,.5,.62l1.21,.47c.91,.33,1.52,1.09,1.52,2.08,0,1.42-1.28,2.32-2.83,2.32-.8,0-1.84-.26-2.38-.58Z"></path>
    </g>
    <g>
      <path class="cls-3" d="M90.48,19.99h4.58v6.9h6.38v-6.9h4.58v19.2h-4.58v-8.16h-6.38v8.16h-4.58V19.99Z"></path>
      <path class="cls-3" d="M128.42,29.56c0,5.66-4.69,10.25-10.63,10.25s-10.66-4.58-10.66-10.25,4.66-10.19,10.66-10.19,10.63,4.56,10.63,10.19Zm-16.68,.03c0,3.32,2.63,6.02,6.05,6.02s6.02-2.7,6.02-6.02-2.63-6.02-6.02-6.02-6.05,2.68-6.05,6.02Z"></path>
      <path class="cls-3" d="M134.1,33.76v5.43h-4.58V19.99h5.64c4.14,0,8.13,1.47,8.13,6.8,0,4.97-4.43,6.98-8.21,6.98h-.98Zm0-9.7v5.71h1.06c2.16,0,3.55-1.08,3.55-2.99,0-1.78-1.13-2.73-3.55-2.73h-1.06Z"></path>
      <path class="cls-3" d="M144.22,19.99h11.12v4.04h-6.54v3.53h5.87v3.68h-5.87v3.91h6.74v4.04h-11.33V19.99Z"></path>
      <path class="cls-3" d="M165.48,33.01h-.05v6.18h-4.58V19.99h5.35c4.3,0,8.39,1.42,8.39,6.51,0,2.83-1.88,4.71-4.27,5.69l5.05,7h-5.48l-4.4-6.18Zm-.05-8.96v5.35h1.18c2.03,0,3.45-1.03,3.45-2.83,0-1.67-1.21-2.52-3.5-2.52h-1.13Z"></path>
      <path class="cls-3" d="M195.96,29.56c0,5.66-4.69,10.25-10.63,10.25s-10.66-4.58-10.66-10.25,4.66-10.19,10.66-10.19,10.63,4.56,10.63,10.19Zm-16.68,.03c0,3.32,2.63,6.02,6.05,6.02s6.02-2.7,6.02-6.02-2.63-6.02-6.02-6.02-6.05,2.68-6.05,6.02Z"></path>
      <path class="cls-3" d="M201.65,33.76v5.43h-4.58V19.99h5.64c4.14,0,8.13,1.47,8.13,6.8,0,4.97-4.43,6.98-8.21,6.98h-.98Zm0-9.7v5.71h1.06c2.16,0,3.55-1.08,3.55-2.99,0-1.78-1.13-2.73-3.55-2.73h-1.06Z"></path>
      <path class="cls-3" d="M211.76,19.99h11.12v4.04h-6.54v3.53h5.87v3.68h-5.87v3.91h6.74v4.04h-11.33V19.99Z"></path>
    </g>
  </g>
</svg>
