<svg width="1104" height="1530" viewBox="0 0 1104 1530" xmlns="http://www.w3.org/2000/svg">
						<g stroke="#FF1C3B" stroke-width=".4" fill="none" fill-rule="evenodd" id="scene">
							<path data-depth="0.1" d="M162.543788 1457c-18.307479 0-38.82337-5.30493-61.9226883-15.94885-29.94805-13.80341-46.2516684-28.65116-49.835131-45.39082-5.3032216-24.73112 17.0309173-50.34387 42.8879107-79.99396 45.9675676-52.70876 103.1779646-118.30903 40.4597926-214.12318-55.8504993-85.31781-74.9913413-131.836217-63.9985205-155.545698 8.3639381-18.056438 32.4595045-21.068367 60.3544495-24.553275 57.426314-7.185494 128.891014-16.115334 125.909845-150.441312-.632598-28.386295-12.318626-66.141355-24.690284-106.121307-24.281179-78.435019-51.804899-167.339898-7.401782-220.926503 34.811861-42.008085 108.314513-56.08015 224.792199-43.0108 152.842635 17.148319 223.663372-94.906034 286.15805-193.773737 41.448465-65.577565 77.245211-122.2063699 130.474404-133.9967854 29.826833-6.6141355 62.490891 1.8313739 99.821783 25.8019393 55.460334 35.6058441 84.192434 75.2338991 85.404594 117.7906391 2.67813 94.050888-124.489338 186.296889-236.682779 267.683296-80.396839 58.320178-149.831162 108.68296-151.293336 145.560171-5.125185 129.67565 84.715177 162.209024 163.9794 190.913161 47.380497 17.155887 88.29864 31.973367 100.05664 65.460266 8.470002 24.129486.257585 56.023392-25.106967 97.501741-40.213572 65.744054-102.321873 92.264924-168.983368 92.272484-56.331578.00379-115.901908-18.92672-168.31289-49.12168-69.760092-40.184281-123.424907-50.794142-164.05516-32.419861-67.153938 30.361451-88.3744 136.244381-108.901656 238.638611-19.311303 96.37038-37.554385 187.3942-92.38212 215.24319-11.151918 5.6644-23.349327 8.50227-36.732386 8.50227z" opacity=".2"/>
							<path data-depth="0.12" d="M172.590994 1440c-17.825555 0-37.809259-5.17002-60.299445-15.54414-29.1615183-13.44736-45.0333805-27.90905-48.5280677-44.21771-5.1568407-24.0902 16.587459-49.04711 41.7734387-77.94778 44.787275-51.38989 100.528104-115.34908 39.410834-208.77665-54.3929328-83.15564-73.0325267-128.486089-62.3364363-151.588454 8.1441735-17.580355 31.6036343-20.517353 58.7622383-23.916095 55.952857-6.998079 125.585352-15.710668 122.67753-146.687152-.609583-27.670608-11.998552-64.481487-24.050112-103.457267-23.648772-76.448997-50.45147-163.105575-7.216548-215.324339 33.90566-40.943871 105.544855-54.6486 218.938557-41.916562 148.870647 16.743916 217.901131-92.515436 278.77987-188.906498 40.372535-63.913768 75.239896-119.114947 127.073339-130.6017887 29.066862-6.4379297 60.852235 1.7826367 97.203798 25.1423677 54.01431 34.70275 81.99831 73.32276 83.17961 114.792716 2.60493 91.667643-121.257692 181.582927-230.539552 260.908365-78.325671 56.855133-145.966611 105.959014-147.390232 141.922099-4.997819 126.438519 82.532169 158.155069 159.759834 186.139815 46.142745 16.721208 85.99278 31.163971 97.438543 63.792655 8.250188 23.511123.249891 54.588044-24.455238 95.005829-39.157156 64.080299-99.645913 89.926639-164.568342 89.930419-54.869997.00379-112.89392-18.44707-163.939828-47.87382-67.962769-39.183943-120.246773-49.516423-159.839345-31.610576-65.429783 29.608426-86.106367 132.834816-106.097644 232.662466-18.81376 93.92716-36.582522 182.65024-89.975891 209.79098C197.496793 1437.24089 185.6194 1440 172.590994 1440z" opacity=".2"/>
							<path data-depth="0.14" d="M182.634375 1423c-17.34379 0-36.787909-5.03889-58.676734-15.14316-28.3714593-13.09505-43.8154936-27.1744-47.2138624-43.04821-5.0218656-23.44918 16.1441438-47.75017 40.6479714-75.89373 43.607354-50.07843 97.875291-112.39252 38.369779-203.42941-52.939622-80.99318-71.081916-125.143063-60.6786691-147.630654 7.9206971-17.107983 30.7442621-19.966254 57.1705531-23.275035 54.483647-6.825778 122.284509-15.313519 119.457581-142.936275-.601715-26.96618-11.682365-62.82518-23.417712-100.792865-23.016569-74.470269-49.102266-158.870665-7.027585-209.725178 32.988397-39.868151 102.66631-53.224417 213.079235-40.814598 144.990759 16.305396 212.136925-90.143439 271.407806-184.046166 39.293165-62.253526 73.23144-116.023097 123.665806-127.20632 28.284419-6.265482 59.214116 1.737678 94.594238 24.486488 52.564968 33.795744 79.801118 71.411351 80.947778 111.794369 2.53932 89.272707-118.0233 176.856952-224.386944 254.128705-76.255156 55.393675-142.107066 103.230914-143.492147 138.283541-4.862922 123.197168 80.353634 154.100569 155.537813 181.369612 44.905393 16.282682 83.687668 30.350676 94.825084 62.117238 8.026659 22.888884.2422 53.156273-23.799934 92.520914-70.313688 115.141004-211.247597 103.537564-319.722922 40.950884-66.166013-38.1759-117.062072-48.253672-155.628638-30.786039-63.709953 28.843929-83.835259 129.409649-103.302084 226.670369-18.308806 91.49118-35.6034 177.9094-87.559084 204.338C206.869513 1420.3083 195.312032 1423 182.634375 1423z" opacity=".2"/>
							<path data-depth="0.16" d="M191.797673 1405c-16.883938 0-35.812577-4.90013-57.122915-14.72689-27.614836-12.729-42.6471822-26.41532-45.9527837-41.84223-4.8807794-22.79035 15.7214867-46.42451 39.5763427-73.78958 42.469217-48.71755 95.320977-109.35056 37.365035-197.92379-51.541635-78.769187-69.2093751-121.704956-59.080527-143.564473 7.70171-16.622617 29.913232-19.396206 55.634826-22.616294 53.067589-6.636939 119.111463-14.897165 116.354902-139.076778-.583119-26.229907-11.374602-61.117348-22.802214-98.048088-22.412205-72.427387-47.811948-154.518822-6.857325-203.966661 32.116967-38.769709 99.982141-51.752227 207.450162-39.68541 141.163952 15.843136 206.605775-87.687805 264.319381-179.038412 38.258646-60.553548 71.299515-112.843087 120.398868-123.721763 27.501242-6.088275 57.63409 1.691398 92.075959 23.815787 51.174347 32.866845 77.687316 69.4419 78.804326 108.707298 2.46879 86.81751-114.916034 172.000381-218.483976 247.163519-74.252974 53.882555-138.384672 100.424369-139.736448 134.536113-4.736892 119.865982 78.259075 149.928966 151.478338 176.4578 43.718758 15.839353 81.473801 29.518105 92.314508 60.398409 7.803946 22.256826.227189 51.680333-23.173289 89.961921-68.455865 111.980362-205.659154 100.689242-311.275584 39.821632-64.44219-37.14264-114.026213-46.939124-151.573-29.953254-62.056705 28.068874-81.655552 125.897494-100.60691 220.513604-17.830558 88.98567-34.669058 173.03338-85.24514 198.73733-10.27652 5.22554-21.522381 7.84021-33.862536 7.84021z" opacity=".3"/>
							<path data-depth="0.18" d="M200.843635 1388c-16.402127 0-34.794914-4.7652-55.503829-14.31832-26.828491-12.38044-41.429184-25.68061-44.6384607-40.67264-4.7420086-22.1493 15.2781237-45.13127 38.4545487-71.73919 41.289157-47.40221 92.671639-106.39383 36.323861-192.57623-50.088175-76.610369-67.258561-118.357929-57.422583-139.610199 7.474435-16.146427 29.053791-18.848853 54.043003-21.975189 51.594416-6.457057 115.798866-14.496206 113.123207-135.321895-.563894-25.525435-11.054594-59.464725-22.162172-95.391093-21.776152-70.437179-46.462602-150.276075-6.668332-198.359575 31.207185-37.70149 97.141162-50.320381 201.594025-38.587159 137.313884 15.431079 200.840904-85.304307 256.946473-174.173999 37.182948-58.889418 69.287065-109.751042 116.99099-120.329866 26.745231-5.923384 56.003386 1.654006 89.466148 23.159866 49.724861 31.967352 75.486115 67.530368 76.572274 105.712543 2.399388 84.426207-111.681304 167.277892-212.334504 240.383433-72.186011 52.421006-134.52469 97.696102-135.83792 130.90112-4.605766 116.624438 76.076502 145.878009 147.259614 171.683527 42.481281 15.4008 79.168457 28.704759 89.697003 58.726667 7.587971 21.634547.219502 50.244683-22.517918 87.469275-66.524363 108.899434-199.860713 97.915624-302.48565 38.719634-62.645226-36.130755-110.841139-45.661159-147.361796-29.136241-60.336666 27.311912-79.38796 122.487261-97.814807 214.528711-17.325551 86.54576-33.689833 168.29225-82.828092 193.28401-9.983575 5.07935-20.909496 7.62281-32.895083 7.62281z" opacity=".3"/>
							<path data-depth="0.2" d="M210.892172 1370c-15.924055 0-33.780934-4.63028-53.88458-13.91357-26.038287-12.02813-40.211074-24.94976-43.327801-39.50316-4.599442-21.50451 14.834713-43.83436 37.336423-69.69277 40.105166-46.07946 90.018188-103.42606 35.278778-187.22548-48.634559-74.444199-65.307535-115.01502-55.76445-135.652529 7.250929-15.670271 28.198059-18.293972 52.451037-21.334133 50.121056-6.277195 112.500986-14.091508 109.89867-131.571218-.548453-24.813472-10.738335-57.800926-21.529624-92.726815-21.140034-68.454742-45.113111-146.041326-6.479313-192.756832 30.289746-36.637162 94.307471-48.903816 195.74105-37.492799C593.93944 463.1422 655.687703 365.20963 710.181255 278.824372c36.103349-57.233026 67.281967-106.65931 113.586545-116.934526 25.955074-5.754726 54.361167 1.60148 86.85229 22.504009 48.275227 31.060379 73.292257 65.619025 74.343774 102.714294 2.32998 82.035139-108.449998 162.555876-206.19192 233.604031-70.107446 50.959617-130.652895 94.971915-131.931358 127.266531-4.470839 113.383254 73.893664 141.819932 143.03659 166.909781 41.247462 14.966075 76.866659 27.891493 87.083018 57.051298 7.36062 21.012323.208034 48.812952-21.866261 84.98065-35.00266 57.35039-89.076362 80.48288-147.110273 80.48666-49.05441.00379-100.941863-16.51455-146.588298-42.868922-60.848043-35.126547-107.670815-44.3909-143.14628-28.319312-58.612625 26.555034-77.120083 119.073614-95.014786 208.544474-16.824274 84.10608-32.714287 163.55159-80.414584 187.83502-9.6906 4.93317-20.29655 7.40164-31.92754 7.40164z" opacity=".3"/>
							<path data-depth="0.22" d="M221.163559 1352c-15.482535 0-32.844496-4.49154-52.389017-13.49353-25.315422-11.66209-39.092832-24.1945-42.112797-38.30102-4.475006-20.84572 14.421568-42.50498 36.300215-67.58871 39.017048-44.72238 87.575218-100.38033 34.314693-181.71987-47.288799-72.220257-63.510221-111.573218-54.226763-131.58647 7.036482-15.181162 27.399463-17.723968 50.971869-20.675441 48.766573-6.092141 109.453865-13.678938 106.922702-127.704145-.534273-24.088553-10.446732-56.100674-20.938935-89.989629-20.563807-66.415691-43.867181-141.682014-6.312751-186.998463 29.449402-35.531184 91.705409-47.427887 190.333626-36.359867 129.680436 14.530325 189.76525-80.473023 242.768112-164.306184 35.110418-55.525515 65.427539-103.47937 110.450416-113.44248 25.220693-5.585094 52.847507 1.555199 84.433999 21.825758 46.940195 30.131503 71.259066 63.649632 72.285931 99.631104 2.265921 79.57623-105.471452 157.706995-200.518906 226.635221-68.19742 49.456079-127.096225 92.16161-128.335282 123.51911-4.349964 110.052071 71.884279 137.65212 139.145774 162.001765 40.10075 14.518972 74.737522 27.058945 84.665138 55.332534 7.157736 20.380294.204615 47.340857-21.261014 82.421752-62.797857 102.662035-188.689127 92.297835-285.581905 36.48852-59.201939-34.093287-104.75151-43.083925-139.267028-27.482746-57.023168 25.77619-75.025498 115.557701-92.432929 202.383961-16.357832 81.60442-31.810054 158.67946-78.185663 182.2307-9.416079 4.7829-19.722612 7.17813-31.029485 7.17813z" opacity=".4"/>
							<path data-depth="0.24" d="M230.214466 1334c-15.000628 0-31.830417-4.35281-50.769609-13.08872-24.525137-11.30975-37.874597-23.45221-40.805798-37.1314-4.328634-20.20084 13.98569-41.21169 35.18577-65.53446 37.836726-43.40702 84.921505-97.42355 33.269507-176.37603-45.835042-70.053813-61.555216-108.222316-52.568472-127.620727 6.812959-14.712512 26.539864-17.180369 49.383537-20.038086 47.293068-5.916042 106.148094-13.277976 103.694066-123.956794-.51883-23.376504-10.126655-54.440458-20.302542-87.328808-19.92762-64.42165-42.517559-137.442948-6.12371-181.391231 28.539443-34.462933 88.871431-45.999783 184.472505-35.265365 125.772749 14.122043 184.002907-78.089487 235.397384-159.437907 34.03071-53.861345 63.414672-100.383466 107.041845-110.050499 24.453183-5.4202 51.212697 1.510238 81.819886 21.177388 45.490418 29.220631 69.064997 61.73426 70.057213 96.624905 2.19272 77.184859-102.232253 152.984387-194.371935 219.858754-66.122435 47.990723-123.224043 89.437084-124.428335 119.884073-4.222595 106.810491 69.701227 133.597331 134.918549 157.227435 38.8706 14.080407 72.4355 26.241792 82.058473 53.656951 6.930358 19.761777.189354 45.905157-20.609295 79.936594-60.869754 99.577247-182.878144 89.524137-276.801541 35.382702-57.397001-33.085173-101.565727-41.809726-135.043523-26.665718-55.310319 25.019219-72.761188 112.139853-89.640209 196.398973-15.856508 79.16445-30.834413 153.93823-75.771917 176.77725-9.123078 4.64048-19.105824 6.96072-30.061849 6.96072z" opacity=".4"/>
							<path data-depth="0.26" d="M239.259344 1316c-14.522559 0-30.808869-4.21785-49.146581-12.67624-23.738726-10.94371-36.660284-22.69694-39.495154-35.92548-4.18607-19.54585 13.538492-39.88231 34.067646-63.43038 36.648929-42.04609 82.264223-94.37767 32.220627-170.86636-44.377641-67.837374-59.600402-104.784212-50.902763-123.558365 6.58568-14.223417 25.680367-16.614161 47.787812-19.375623 45.823463-5.73476 102.846366-12.869165 100.46568-120.100865-.495818-22.647764-9.806607-52.728777-19.662417-84.583934-19.29907-62.382544-41.171853-133.087299-5.946036-175.628933 27.63336-33.368286 86.060451-44.531398 178.627101-34.139982 121.797226 13.682473 178.237258-75.633774 228.015914-154.429989 32.951108-52.161354 61.409571-97.203434 103.641188-106.56214 23.670599-5.242993 49.566703 1.46017 79.209831 20.499121 44.044572 28.291738 66.863574 59.768612 67.824932 93.541661 2.123314 74.733462-99.000934 148.135371-188.229325 212.893527-64.047628 46.483336-119.355983 86.62666-120.525509 116.136466-4.087663 103.479138 67.518357 129.425525 130.695464 152.315391 37.632996 13.633296 70.133704 25.409225 79.440708 51.94195 6.710581 19.122173.181674 44.429262-19.953853 77.373873-58.934264 96.409042-177.079087 86.672052-268.010671 34.253467-55.599791-32.051864-98.395354-40.506475-130.831719-25.829119-53.586238 24.240333-70.489483 108.631344-86.836351 190.238194-15.355232 76.65892-29.862651 149.06595-73.362202 171.18033-8.830109 4.48265-18.492891 6.73343-29.094322 6.73343z" opacity=".4"/>
							<path data-depth="0.28" d="M249.417418 1299c-14.062791 0-29.829932-4.08292-47.589271-12.26767-22.982228-10.59137-35.488378-21.96224-38.23049-34.75967-4.052568-18.90099 13.115929-38.58527 32.988663-61.3762 35.51489-40.73079 79.714397-91.42481 31.219926-165.52276-42.979949-65.671027-57.728267-101.437233-49.31256-119.600351 6.370486-13.750994 24.853227-16.059224 46.25609-18.738283 44.407816-5.551103 99.674242-12.460656 97.363899-116.346122-.481005-21.935749-9.498917-51.072417-19.047071-81.919445-18.69105-60.399935-39.874241-128.852185-5.764494-170.025703 26.754526-32.296294 83.338983-43.110917 172.987853-33.041738 118.024423 13.251508 172.703795-73.250341 220.933145-149.565708 31.913028-50.501035 59.478067-94.111438 100.367345-103.170293 22.898904-5.074321 47.990741 1.41521 76.692014 19.843206 42.654228 27.396037 64.753981 57.853315 65.685693 90.546927 2.056583 72.3384-95.898158 143.409167-182.320123 206.113547-62.053531 45.018044-115.645906 83.902252-116.778353 112.497811-3.957882 100.24149 65.42436 125.370921 126.640865 147.54506 36.446602 13.198533 67.916499 24.595889 76.926836 50.270213 6.495471 18.499892.174222 42.993613-19.323555 74.881237-57.073038 93.335722-171.484237 83.902252-259.565104 33.151474-53.872645-31.04758-95.34519-39.232334-126.781-25.012127-51.929685 23.483398-68.306606 105.213645-84.145709 184.249695-14.873305 74.22282-28.920945 144.32867-71.041143 165.7271-8.544481 4.34401-17.899475 6.5198-28.163456 6.5198z" opacity=".5"/>
							<path data-depth="0.3" d="M258.466448 1282c-13.58101 0-28.816117-3.948-45.974065-11.86292-22.192157-10.23906-34.266689-21.2238-36.916273-33.58637-3.910028-18.25997 12.672581-37.29212 31.870709-59.33353 34.334821-39.41184 77.061253-88.46089 30.17119-160.16834-41.526549-63.508643-55.777525-98.094316-47.650873-115.646442 6.143249-13.274811 23.997659-15.508099 44.668198-18.093413 42.930829-5.375031 96.365364-12.063537 94.135929-112.595539-.469355-21.223801-9.182701-49.412431-18.410823-79.255207-18.062591-58.40993-38.532519-124.621224-5.583051-164.426734 25.841012-31.228172 80.501927-41.675415 167.135748-31.947366 114.125146 12.820584 166.942707-70.863346 213.560243-144.698099 30.833585-48.840861 57.465688-91.019712 96.963413-99.778741 22.108884-4.898091 46.348791 1.370255 74.078579 19.194917 41.208599 26.481489 62.552889 55.938172 63.453747 87.544867 1.990973 69.947319-92.663517 138.68715-176.170829 199.334152-59.982793 43.556675-111.782157 81.17432-112.876057 108.867084-3.830541 96.996594 63.241782 121.309146 122.418344 142.763846 35.205399 12.763805 65.611266 23.790189 74.313256 48.59482 6.268159 17.885226.162761 41.565643-18.671995 72.396365-55.134055 90.25131-165.682263 81.13647-250.77554 32.053353-52.087034-30.039609-92.167667-37.950745-122.573534-24.198994-50.209614 22.726538-66.038985 101.800051-81.346009 178.269331-14.3721 71.78316-27.945539 139.58425-68.628006 160.27433-8.251561 4.19404-17.282857 6.29863-27.192301 6.29863z" opacity=".5"/>
							<path data-depth="0.32" d="M267.511441 1263c-13.102955 0-27.798388-3.80925-44.351081-11.44287-21.40578-9.8806-33.05243-20.47235-35.605691-32.38807-3.767478-17.59744 12.22539-35.95899 30.748822-57.22193 33.150778-38.05465 74.411468-85.4187 29.129866-154.66984-40.072952-61.284626-53.826515-94.652426-45.988951-111.576531 5.915999-12.785758 23.130649-14.938153 43.07256-17.43478 41.461168-5.189958 93.059726-11.647144 90.911205-108.735676-.453913-20.491256-8.870216-47.704492-17.774476-76.514056-17.434041-56.367031-37.186821-120.261771-5.401565-158.664435 24.934954-30.125968 77.702338-40.207045 161.279065-30.818214 110.22142 12.399915 161.180718-68.411366 206.18619-139.693853 29.757778-47.133293 55.456818-87.839664 93.562813-96.286585 21.33391-4.732243 44.717994 1.323969 71.464817 18.516651 39.755212 25.556383 60.355296 53.972539 61.225296 84.461652 1.917782 67.492153-89.432206 133.834344-170.032021 192.365119-57.904166 42.053035-107.914029 78.367612-108.969376 105.119349-3.699391 93.66891 61.058861 117.148553 118.19894 137.85921 33.967822 12.316694 63.305731 22.953839 71.695556 46.876066 6.04839 17.241858.151304 40.085996-18.016563 69.833686-53.202384 87.090677-159.875717 78.288174-241.988576 30.924131-50.293558-29.01005-89.019901-36.651242-118.354027-23.362377-48.493037 21.951405-63.770992 98.283883-78.553424 172.112173-13.870825 69.27006-26.966214 134.70817-66.214557 154.66984-7.954825 4.04378-16.666171 6.07134-26.224822 6.07134z" opacity=".5"/>
							<path data-depth="0.34" d="M278.672007 1247c-12.639342 0-26.823113-3.67815-42.793579-11.04961-20.649179-9.5344-31.884149-19.75444-34.344638-31.24724-3.630168-16.97404 11.802775-34.70569 29.67728-55.23288 32.012853-36.77773 71.853845-82.54439 28.121495-149.474625-38.671314-59.183769-51.950383-91.404528-44.394789-107.730824 5.700763-12.322376 22.310955-14.405778 41.536837-16.814948 40.049187-5.015317 89.89112-11.257947 87.812953-105.090586-.439103-19.807471-8.562501-46.096216-17.162856-73.930467-16.825958-54.441189-35.889068-116.14398-5.223807-153.22096 24.05601-29.08808 74.965416-38.819462 155.654308-29.747193 106.410464 11.943576 155.639167-66.104452 199.09897-134.974146 28.719583-45.52044 53.52131-84.832342 90.284799-92.987914 20.584828-4.568333 43.141832 1.284133 68.954252 17.883165 38.364699 24.671268 58.237878 52.107778 59.07823 81.544355 1.847259 65.168815-86.32909 129.246685-164.122175 185.782639-55.909877 40.62634-104.199809 75.718406-105.221859 101.582895-3.573386 90.525711 58.964669 113.212065 114.14397 133.227876 32.781281 11.890544 61.092044 22.16361 69.18516 45.247704 5.829466 16.644488.143844 38.694457-17.389978 67.415101-51.344724 84.105048-154.295361 75.585825-233.538243 29.853257-48.566264-28.027439-85.958123-35.410258-114.30674-22.568926-46.836351 21.212821-61.591713 94.969037-75.862548 166.300937-13.385059 66.90372-26.031972 130.09899-63.893217 149.37235-7.67294 3.90164-16.07267 5.86004-25.293825 5.86004z" opacity=".6"/>
							<path data-depth="0.36" d="M287.718191 1229c-12.161347 0-25.805508-3.53941-41.170794-10.63337-19.866686-9.16839-30.670047-18.99546-33.034228-30.04145-3.491423-16.31913 11.359417-33.37644 28.555524-53.12899 30.832703-35.42059 69.204306-79.49854 27.076492-143.968785-37.2141-56.959884-49.995809-87.962838-42.733044-103.664944 5.477334-11.837148 21.451632-13.839658 39.948985-16.156363 38.575868-4.826467 86.585765-10.84157 84.584722-101.230891-.423661-19.07117-8.246263-44.388356-16.526571-71.189445-16.189911-52.394613-34.539739-111.784766-5.03476-147.458983 23.142495-27.985939 72.139674-37.351178 149.794509-28.618111 102.46928 11.541881 149.873946-63.652585 191.718058-129.970137 27.643896-43.816752 51.520233-81.652469 86.884598-89.499737 19.806163-4.387353 41.503671 1.234061 66.340811 17.208721 36.915268 23.742434 56.044329 50.146048 56.850042 78.465108 1.777864 62.710005-83.09056 124.390363-157.976466 178.8102-53.835239 39.122775-100.33206 72.915617-101.315559 97.846686-3.442248 87.183032 56.781954 109.032733 109.921177 128.308318 31.543849 11.443459 58.78678 21.331093 66.56399 43.529056 5.609728 16.008729.136177 37.222472-16.734619 64.856363-49.405709 80.933231-148.478133 72.745271-224.748504 28.724104-46.769174-26.997932-82.78038-34.099464-110.091399-21.732351-45.116139 20.433937-59.327704 91.456821-73.066432 160.140291-12.883841 64.40211-25.052754 125.22695-61.480055 143.76815-7.38381 3.75518-15.459852 5.63656-24.326477 5.63656z" opacity=".7"/>
							<path data-depth="0.38" d="M296.767394 1211c-11.683373.00378-24.787954-3.39309-39.555648-10.2133-19.07667-8.80613-29.452232-18.2402-31.720114-28.84311-3.348906-15.65661 10.916074-32.04706 27.437597-51.01732 29.648782-34.06324 66.551007-76.45599 26.035289-138.465842-35.764505-54.739496-48.048868-84.5245-41.078909-99.594788 5.253927-11.351892 20.592372-13.273505 38.35745-15.501517 37.102555-4.641377 83.28042-10.428913 81.3565-97.366777-.408219-18.346109-7.926249-42.680238-15.886516-68.451794-15.557673-50.35156-33.194238-107.428766-4.853268-141.696273 22.236586-26.887453 69.325383-35.882721 143.938713-27.492685 98.520589 11.064406 144.116364-61.19657 184.348597-124.961595 26.564462-42.105267 49.507872-78.472174 83.484529-86.007319 19.016194-4.229062 39.865592 1.187769 63.723715 16.530413 35.473459 22.817264 53.847086 48.180288 54.618166 75.381706 1.712251 60.250893-79.855917 119.537198-151.827164 171.840633-51.764415 37.615199-96.468156 70.104835-97.416886 94.098521-3.311109 83.85496 54.599267 104.864093 105.698437 123.403121 30.310247 10.996317 56.485389 20.490902 63.958062 41.810216 5.38622 15.36534.120954 35.746544-16.083066 62.293554-47.470557 77.768591-142.676259 69.896786-215.970437 27.591036-44.968327-25.953126-79.61023-32.792253-105.876087-20.891869-43.392149 19.654925-57.052361 87.944059-70.266555 153.978709-12.382638 61.89259-24.073571 120.35426-59.066996 138.16323-7.083353 3.60491-14.84329 5.41305-23.355409 5.41305z" opacity=".8"/>
							<path data-depth="0.4" d="M306.035824 1194c-11.237937 0-23.847464-3.26953-38.052127-9.82374-18.35353-8.46366-28.333546-17.5259-30.512175-27.70198-3.216794-15.02923 10.510465-30.78587 26.404986-49.03159 28.557092-32.77865 64.104743-73.58148 25.067497-133.262717-34.418553-52.642089-46.243773-81.27984-39.544962-95.755941 5.046842-10.888331 19.797109-12.733362 36.88514-14.8739 35.748463-4.474293 80.234177-10.039693 78.381395-93.725271-.390259-17.658494-7.634675-41.075604-15.295872-65.864175-14.977602-48.425418-31.951965-103.314125-4.686894-136.255684 21.403611-25.849368 66.730465-34.483504 138.538084-26.421441 94.901088 10.661018 138.799519-58.885641 177.545019-120.237637 25.571423-40.495955 47.649462-75.468184 80.336478-82.711917 18.311852-4.065129 38.35524 1.140357 61.30852 15.893023 34.138172 21.939571 51.821064 46.315188 52.563692 72.463853 1.644391 57.934712-76.877194 114.952592-146.157603 165.257137-49.850825 36.199723-92.900538 67.45916-93.813667 90.565609-3.186483 80.711555 52.590214 100.931118 101.8045 118.771463 29.16332 10.570092 54.355852 19.704318 61.539645 40.181504 5.175665 14.76782.113667 34.354693-15.47774 59.874456-45.686801 74.774877-137.306684 67.201538-207.856381 26.519944-43.311149-24.981787-76.68017-31.551156-101.990158-20.098329-41.806948 18.920086-54.962079 84.625142-67.685274 148.166923-11.916154 59.52591-23.173036 115.74819-56.837594 132.86871-6.816268 3.46275-14.272863 5.2017-22.464509 5.2017z" opacity=".7"/>
							<path data-depth="0.42" d="M316.080928 1176c-10.756112 0-22.829762-3.127-36.436755-9.4037-17.559609-8.10142-27.111763-16.7707-29.19408-26.49998-3.074257-14.37055 10.063269-29.46039 25.279324-46.92387 27.384358-31.42897 61.451058-70.53536 24.029935-127.76394-32.964966-50.414303-44.296555-77.834203-37.883019-91.686117 4.81583-10.403131 18.937723-12.171058 35.289588-14.215342 34.274932-4.289209 76.932136-9.627061 75.152701-89.865189-.374817-16.925911-7.31461-39.363816-14.659509-63.122933-14.345269-46.386308-30.602483-98.95468-4.497804-130.489647 20.489996-24.750974 63.896833-33.02275 132.677646-25.299902 90.982094 10.232775 133.041105-56.426011 170.170704-115.233234 24.49183-38.784601 45.644381-72.280566 76.939707-79.219773 17.521749-3.89171 36.713136 1.097856 58.694828 15.218556 32.688586 21.010691 49.619713 44.353381 50.331487 69.380711 1.574989 55.475798-73.645861 110.096026-140.011186 158.288117-47.779703 34.692249-89.039861 64.65236-89.914434 86.825265-3.055327 77.376132 50.410993 96.755183 97.584931 113.855236 27.929545 10.122989 52.050344 18.86798 58.921989 38.462816 4.955914 14.128271.109795 32.878894-14.822308 57.315653-43.74758 71.60671-131.503977 64.353289-199.065687 25.390759-41.525181-23.948403-73.513351-30.240254-97.781805-19.261694-40.082703 18.141124-52.690183 81.108842-64.884987 142.009568-11.414881 57.02036-22.197496 110.87209-54.427972 127.26422-6.515758 3.31628-13.656211 4.97442-21.493294 4.97442z" opacity=".7"/>
							<path data-depth="0.44" d="M326.243388 1157c-10.296281 0-21.858281-2.98828-34.879268-8.98752-16.806774-7.73926-25.939655-16.01186-27.932973-25.29443-2.944501-13.71202 9.636895-28.1314 24.20403-44.82035 26.242821-30.0681 58.901397-67.48963 23.02547-122.258292-31.567177-48.190671-42.420526-74.392929-36.28899-87.616994 4.600546-9.918048 18.114178-11.6051 33.757553-13.556935 32.863212-4.104151 73.756539-9.21448 72.051229-86.009377-.36001-16.193427-7.006928-37.659836-14.047962-60.382078-13.737217-44.339956-29.3048-94.59594-4.320118-124.728348 19.611062-23.652768 61.171354-31.558459 127.045573-24.170988 87.183011 9.785657 127.511691-53.97809 163.088241-110.229538 23.457482-37.077312 43.712772-69.101034 73.665589-75.728196 16.738562-3.710758 35.136959 1.044005 56.176691 14.547984 31.294328 20.074402 47.509929 42.380555 48.188263 66.294324 1.508252 53.017302-70.539189 105.240253-134.105555 151.320217-45.778092 33.184988-85.322329 61.845954-86.159825 83.077841-2.929343 74.041144 48.313318 92.583582 93.522973 108.947228 26.746836 9.67596 49.840518 18.031783 56.415435 36.740657 4.740761 13.496414.098529 31.407154-14.199546 54.757311-41.889985 68.446639-125.916279 61.501736-190.611939 24.261771-39.798139-22.915155-70.467187-28.937098-93.7314-18.425177-38.430102 17.366041-50.511274 77.600597-62.19454 135.85306-10.93293 54.50765-21.263317 105.99677-52.110475 121.65685-6.230065 3.16606-13.058883 4.75098-20.558456 4.75098z" opacity=".7"/>
							<path data-depth="0.46" d="M335.28798 1141c-9.818339 0-20.836992-2.85716-33.260429-8.59421-16.016805-7.39299-24.72192-15.29754-26.618946-24.15701-2.798208-13.08836 9.197357-26.86637 23.086161-42.82326 25.058917-28.79136 56.251929-64.619516 21.976723-117.07148-30.110079-46.085882-40.469885-71.14096-34.627349-83.767021 4.37717-9.454389 17.254984-11.068646 32.162351-12.936787 31.389909-3.92954 70.455011-8.82536 68.826825-82.368757-.340783-15.505956-6.686922-36.044147-13.411708-57.794925-13.101217-42.410228-27.955573-90.485511-4.134835-119.284451 18.701419-22.614746 58.349638-30.1631 121.197613-23.10357 83.177579 9.371023 121.739079-51.663782 155.703794-105.506432 22.381876-35.464378 41.704277-66.097356 70.265686-72.433122 15.982727-3.539238 33.498978 1.007963 53.563529 13.910645 29.848812 19.196767 45.312792 40.52314 45.96028 63.384193 1.442648 50.693713-67.300874 100.652295-127.956478 144.72983-43.707324 31.769777-81.458518 59.200767-82.257465 79.553281-2.798208 70.894653 46.130671 88.651473 89.304102 104.309002 25.501935 9.253554 47.531668 17.24526 53.794504 35.119549 4.517269 12.887526.087089 30.007738-13.544234 52.338284-39.951138 65.453169-120.11468 58.806677-181.826711 23.186936-38.001101-21.932666-67.293301-27.703822-89.516145-17.631772-36.709912 16.627598-48.243526 74.286107-59.398493 130.042367-10.431749 52.13745-20.284166 101.39501-49.693747 116.36288-5.944772 3.02389-12.449942 4.53583-19.595028 4.53583z" opacity=".8"/>
							<path data-depth="0.48" d="M345.337362 1123c-9.336459 0-19.822953-2.72217-31.641064-8.17787-15.2266-7.03447-23.507601-14.54221-25.308312-22.9586-2.659454-12.42581 8.753876-25.5369 21.967917-40.71895 23.878336-27.42993 53.597633-61.568731 20.935157-111.559722-28.660056-43.865163-38.522353-67.698341-32.965117-79.700116 4.142392-8.96915 16.387984-10.5025 30.570474-12.278157 29.916014-3.748188 67.148362-8.412601 65.593546-78.503725-.329122-14.769377-6.370583-34.335678-12.771429-55.052938-12.472572-40.37064-26.609666-86.128828-3.953242-113.524678 17.791479-21.516116 55.5194-28.694465 115.336296-21.974228 79.26533 8.919931 115.979406-49.211064 148.335459-100.50067 21.302108-33.760198 39.695085-62.916561 66.85707-68.940165 15.203902-3.384728 31.864262.954084 50.953312 13.236027 28.399028 18.267686 43.111139 38.553337 43.731552 60.296616 1.365665 48.234263-64.072777 95.798396-121.816585 137.762963-41.631984 30.258103-77.589459 56.389413-78.353626 75.800486-2.66702 67.56583 43.950967 84.478111 85.079811 99.39893 24.271768 8.810135 45.233406 16.412522 51.187858 33.400523 4.289929 12.255441.07566 28.535451-12.888702 49.778972-38.01543 62.284292-114.295969 55.957804-173.042274 22.053735-36.214719-20.89899-64.11439-26.384975-85.303008-16.791127-34.989025 15.848401-45.974876 70.768827-56.60134 123.879524-9.926609 49.6351-19.308464 96.52153-47.280013 110.75707-5.648028 2.87362-11.833243 4.3161-18.62374 4.3161z" opacity=".8"/>
							<path data-depth="0.5" d="M354.494282 1105c-8.876642 0-18.843929-2.58346-30.079849-7.76172-14.469986-6.6648-22.339296-13.78349-24.047216-21.75325-2.522118-11.76741 8.327532-24.2081 20.892676-38.61571 22.740714-26.07288 51.044477-58.523084 19.927-106.054179-27.258561-41.6455-36.642656-64.261163-31.371203-75.635189 3.930868-8.4804 15.564419-9.936669 29.038434-11.619889 27.001047-3.374004 63.973169-7.992456 62.496253-74.644169-.310531-14.036917-6.066715-32.631765-12.159939-52.312196-11.864555-38.328234-25.312062-81.770429-3.771815-107.763879 16.916365-20.410456 52.794054-27.234114 109.704537-20.849227 75.553703 8.487965 110.439208-46.759463 141.24994-95.493398 20.260253-32.049257 37.75981-59.733492 63.583112-65.452656 14.435904-3.192443 30.288132.915369 48.439047 12.565518 27.004834 17.339053 40.997663 36.588277 41.584643 57.214336 1.302715 45.776008-60.966321 90.943031-115.903796 130.791836-39.641931 28.754687-73.872291 53.583121-74.606962 72.060712-2.537265 64.230903 43.792442 81.006361 81.022078 94.487248 23.08154 8.35936 43.019902 15.5764 48.670051 31.678571 4.078559 11.619889.071952 27.063901-12.2584 47.220929-36.161712 59.120724-108.727501 53.110306-164.592782 20.924878-34.4803-19.865774-61.060994-25.081863-81.253082-15.954652-33.329063 15.065761-43.792443 67.253133-53.907421 117.719461-9.444686 47.130145-18.370559 91.650365-44.962614 105.153945-5.36234 2.72719-11.239707 4.09268-17.692692 4.09268z" opacity=".8"/>
							<path data-depth="0.52" d="M363.544186 1088c-8.398627 0-17.830058-2.44475-28.460753-7.35316-13.691275-6.31623-21.125195-13.05253-22.736824-20.58357-2.383394-11.12625 7.884117-22.91856 19.770822-36.56525 21.56026-24.757796 48.390469-55.570698 18.881779-100.707701-25.801188-39.483051-34.687844-60.918113-29.705415-71.681058 3.703719-8.004088 14.705164-9.381624 27.443082-10.974873 25.604463-3.209204 60.670623-7.599153 59.267069-70.893894-.295087-13.332578-5.750412-30.971848-11.519739-49.651838-11.236001-36.338183-23.966353-77.531801-3.590224-102.160929 16.00279-19.342267 49.971832-25.809874 103.851673-19.747202 71.566139 8.053286 104.676402-44.380116 133.87109-90.633528 19.184431-30.389045 35.750912-56.641697 60.182594-62.057229 13.649661-3.023767 28.646129.862852 45.821699 11.905844 25.559066 16.435819 38.803928 34.676814 39.360053 54.215872 1.229529 43.388593-57.734887 86.224657-109.760977 124.019848-37.566832 27.285805-70.011258 50.851506-70.703578 68.418871-2.406093 60.990018 41.516457 76.918721 76.805824 89.717694 21.843997 7.924615 40.710642 14.763096 46.052472 30.006816 3.858829 10.993795.064314 25.624436-11.602968 44.728284-34.226297 56.043756-102.917231 50.336822-155.809666 19.822891-32.694115-18.861644-57.89378-23.81169-77.036597-15.137756-31.61213 14.316533-41.524023 63.8397-51.110564 111.735559-8.943403 44.690439-17.391211 86.905859-42.549261 99.704829-5.065658 2.5772-10.623128 3.87148-16.721591 3.87148z" opacity=".9"/>
							<path data-depth="0.54" d="M372.590013 1071c-7.916927 0-16.812607-2.3098-26.845754-6.94834-12.893822-5.96384-19.90002-12.31391-21.419163-19.41372-2.240925-10.4812 7.440778-21.62127 18.656741-34.51452 20.376169-23.438829 45.736791-52.610515 17.836706-95.360817-24.351639-37.312796-32.740937-57.570911-28.051244-67.722688 3.480426-7.527688 13.849901-8.830266 25.851888-10.333532 24.208038-3.04061 57.364661-7.19447 56.042024-67.139557-.279644-12.624403-5.430371-29.315575-10.883414-46.987467-10.603771-34.35549-22.620874-73.296509-3.404846-96.561155 15.093179-18.273956 47.150123-24.370323 97.996073-18.648826 67.677452 7.622353 98.914361-41.992989 126.497014-85.765663 18.105012-28.73623 33.746141-53.549581 56.7827-58.669015 12.878707-2.858855 27.00825.825471 43.208665 11.257453 24.113564 15.524911 36.603038 32.757561 37.124535 51.213272 1.167699 40.997123-54.500207 81.501993-103.611613 117.239579-35.492022 25.824363-66.143192 48.127222-66.800732 64.780528-2.274936 57.752667 39.229417 72.834549 72.578767 84.943979 20.610465 7.489823 38.409382 13.953487 43.439182 28.331068 3.635362 10.378971.052905 24.196141-10.951436 42.242903-32.283682 52.958877-97.092901 47.570597-147.016783 18.724556-30.889245-17.84986-54.715608-22.541412-72.8244-14.320783-29.891599 13.552111-39.255869 60.422194-48.310265 105.747359-8.442204 42.254266-16.415816 82.164646-40.136368 94.251356-4.77661 2.43476-10.010474 3.65403-15.758277 3.65403z" opacity=".9"/>
							<path data-depth="0.56" d="M383.750188 1052c-7.457024 0-15.83719-2.17106-25.288051-6.53211-12.137054-5.59786-18.731469-11.55505-20.1578-18.20819-2.103554-9.82653 7.01437-20.29227 17.573758-32.407116 19.242224-22.085099 43.190962-49.567602 16.839784-89.857116-22.953712-35.092576-30.868524-54.129107-26.457113-63.653046 3.261266-7.046505 13.022363-8.264419 24.319508-9.679015 11.826818-1.482679 25.231301-3.158256 35.699888-11.536146 12.155971-9.731967 17.796977-26.657951 17.240822-51.738666-.264836-11.89925-5.126468-27.614884-10.271852-44.25341-9.991883-32.316336-21.319296-68.936978-3.223433-90.795137 14.217908-17.175618 44.428125-22.905867 92.359652-17.519811 63.844384 7.182669 93.377377-39.540611 119.410753-80.760582 17.070569-27.024839 31.810582-50.369458 53.508215-55.180598 12.129487-2.689246 25.431819.779162 40.693937 10.579212 22.719143 14.599843 34.492993 30.795835 34.984831 48.134094 1.097178 38.53829-51.39331 76.645393-97.705554 110.27042-33.497966 24.320464-62.429404 45.32003-63.046093 61.043229-2.152738 54.412783 37.035418 68.615479 68.524414 80.026807 19.420043 7.03894 36.187943 13.117165 40.924724 26.612564 3.4126 9.739532.037833 22.720533-10.328603 39.680557-30.429652 49.798325-91.523526 44.718639-138.56596 17.595459-29.166007-16.820078-51.658147-21.234072-68.774117-13.487834-28.239081 12.776753-37.073252 56.912911-45.62367 99.589084-7.956429 39.748639-15.47777 77.292171-37.814792 88.650551-4.490862 2.28075-9.416811 3.4268-14.823248 3.4268z"/>
						</g>
					</svg>