<svg id="Capa_1" data-name="Capa 1" xmlns="http://www.w3.org/2000/svg" viewBox="0 0 510 181.53"><defs><style>.cls-1,.cls-3{fill:#cb6120;}.cls-2{fill:#332f2e;}.cls-3{font-size:27.71px;font-family:Helvetica, Helvetica;letter-spacing:-0.01em;}.cls-4{letter-spacing:-0.06em;}.cls-5{letter-spacing:-0.01em;}.cls-6{letter-spacing:-0.03em;}.cls-7{letter-spacing:-0.12em;}</style></defs><title>Logo_horizontal_DAT</title><path class="cls-1" d="M92.33,37.73S41.85,96.4,22.26,122L92.33.73c23.51,40.71,46.79,81,70.07,121.3C142.81,96.4,92.33,37.73,92.33,37.73Z" transform="translate(0 -0.5)"/><path class="cls-2" d="M149.63,142.24S110.3,75.58,92.33,48.79l92.33,105.34L47.27,181.49C77.84,171.18,149.63,142.24,149.63,142.24Z" transform="translate(0 -0.5)"/><path class="cls-2" d="M35,142.24s39.33-66.66,57.3-93.45L0,154.13l137.38,27.36C106.82,171.18,35,142.24,35,142.24Z" transform="translate(0 -0.5)"/><path class="cls-2" d="M287.16,26.27a36,36,0,0,1,18.53,13.8,48.4,48.4,0,0,1,7.75,17.55,84.11,84.11,0,0,1,2.07,18q0,21.69-8.71,36.73Q295,132.63,270.33,132.64H223.45V23.91h46.88A57.48,57.48,0,0,1,287.16,26.27ZM245.51,42.79v71h21q16.11,0,22.46-15.85,3.46-8.72,3.47-20.73,0-16.61-5.21-25.49t-20.72-8.89Z" transform="translate(0 -0.5)"/><path class="cls-1" d="M346.56,132.64H323L360,23.91h21.47l36.77,108.73H394L370.39,50.1Z" transform="translate(0 -0.5)"/><path class="cls-2" d="M509.28,23.91V43.16H476.75v89.48H453.88V43.16H421.21V23.91Z" transform="translate(0 -0.5)"/><rect class="cls-2" x="223.45" y="138.04" width="285.83" height="4.73"/><text class="cls-3" transform="translate(221.37 168.21)">Digital<tspan class="cls-4" x="75.07" y="0"> </tspan><tspan class="cls-5" x="80.98" y="0">Advertising</tspan><tspan class="cls-6" x="215.03" y="0"> </tspan><tspan class="cls-7" x="221.97" y="0">T</tspan><tspan x="235.55" y="0">eam</tspan></text><rect class="cls-1" x="196.81" width="5.75" height="181.45"/></svg>